<svg width="757" height="599" viewBox="0 0 757 599" fill="none" xmlns="http://www.w3.org/2000/svg">
<path d="M757 0H0V599H757V0Z" fill="#231F2D"/>
<path d="M308.74 337.97C308.82 338.34 308.92 338.69 309.03 339.05L309.1 339.24C309.16 339.4 309.21 339.57 309.27 339.73C309.33 339.89 309.39 340.05 309.46 340.2C310.212 341.828 311.414 343.207 312.925 344.173C314.436 345.14 316.192 345.653 317.985 345.653C319.779 345.653 321.534 345.14 323.045 344.173C324.556 343.207 325.758 341.828 326.51 340.2C326.59 340.05 326.64 339.89 326.71 339.73C326.776 339.57 326.832 339.406 326.88 339.24C326.908 339.178 326.931 339.115 326.95 339.05C327.071 338.697 327.168 338.336 327.24 337.97C327.24 337.97 327.24 337.89 327.24 337.85C327.29 337.58 327.33 337.32 327.36 337.05C327.39 336.78 327.36 336.41 327.36 336.05C327.375 335.757 327.375 335.463 327.36 335.17C327.36 335.04 327.36 334.91 327.36 334.78L327.3 334.35C327.3 334.18 327.23 334.01 327.19 333.85L327.13 333.59C327.13 333.4 327.03 333.21 326.96 333.02C326.96 332.86 326.87 332.69 326.81 332.54C326.145 330.819 324.993 329.33 323.493 328.255C321.994 327.18 320.213 326.567 318.37 326.49H318.02C316.963 326.489 315.914 326.671 314.92 327.03L314.67 327.11L314.23 327.3L313.89 327.46L313.53 327.64L313.12 327.88L312.85 328.05L312.34 328.42L312.2 328.52L312.14 328.57L311.58 329.07L311.49 329.15L311.16 329.49L311 329.66L310.9 329.78C310.75 329.95 310.61 330.13 310.47 330.32L310.36 330.46C310.23 330.64 310.11 330.83 309.99 331.03L309.89 331.18L309.57 331.79C309.57 331.79 309.52 331.89 309.49 331.95C309.46 332.01 309.31 332.34 309.23 332.55V332.6V332.73C309.23 332.83 309.16 332.93 309.13 333.03C309.13 333.12 309.13 333.21 309.05 333.31C308.97 333.41 309.05 333.4 309 333.45C308.95 333.5 309 333.51 309 333.54C309 333.57 309 333.54 309 333.6L308.94 333.86C308.94 334.01 308.87 334.17 308.84 334.33L308.78 334.76C308.78 334.89 308.78 335.02 308.73 335.15C308.73 335.44 308.73 335.73 308.73 336.03C308.708 336.363 308.708 336.697 308.73 337.03C308.73 337.3 308.8 337.56 308.84 337.83C308.815 337.882 308.781 337.929 308.74 337.97Z" fill="url(#paint0_linear_20_669)"/>
<path d="M332 339.14C331.92 339.5 331.84 339.85 331.73 340.2H402.73C403.641 342.16 405.196 343.748 407.137 344.699C409.077 345.65 411.286 345.906 413.392 345.425C415.499 344.944 417.377 343.755 418.713 342.056C420.048 340.357 420.76 338.251 420.73 336.09C420.735 334.231 420.199 332.411 419.187 330.852C418.175 329.292 416.73 328.062 415.03 327.31L415.12 277.24C417.103 276.338 418.72 274.788 419.703 272.844C420.686 270.9 420.978 268.679 420.529 266.547C420.081 264.415 418.919 262.5 417.236 261.117C415.553 259.734 413.448 258.966 411.27 258.94C409.738 258.939 408.23 259.317 406.88 260.04L327.35 203.04C327.507 202.341 327.588 201.627 327.59 200.91C327.603 198.387 326.614 195.962 324.841 194.167C323.067 192.373 320.653 191.356 318.13 191.34C316.334 191.343 314.577 191.864 313.07 192.84L233.9 136.4C234.219 135.432 234.384 134.419 234.39 133.4C234.397 132.151 234.157 130.913 233.685 129.757C233.213 128.601 232.518 127.548 231.64 126.661C230.762 125.773 229.717 125.067 228.566 124.583C227.414 124.099 226.179 123.847 224.93 123.84C222.816 123.826 220.76 124.531 219.1 125.84L143.97 72.27C144.1 71.6383 144.163 70.9949 144.16 70.35C144.138 68.4838 143.565 66.6658 142.513 65.1246C141.46 63.5835 139.975 62.3881 138.245 61.6889C136.514 60.9898 134.616 60.818 132.788 61.1954C130.96 61.5727 129.285 62.4823 127.973 63.8095C126.661 65.1368 125.771 66.8225 125.415 68.6545C125.058 70.4865 125.252 72.383 125.971 74.1051C126.69 75.8273 127.903 77.2983 129.456 78.333C131.009 79.3677 132.834 79.9199 134.7 79.92C135.193 79.9173 135.684 79.8738 136.17 79.79L213 189.34L143.91 140.09C144.074 139.375 144.158 138.644 144.16 137.91C144.138 136.044 143.565 134.226 142.513 132.685C141.46 131.143 139.975 129.948 138.245 129.249C136.514 128.55 134.616 128.378 132.788 128.755C130.96 129.133 129.285 130.042 127.973 131.37C126.661 132.697 125.771 134.383 125.415 136.215C125.058 138.047 125.252 139.943 125.971 141.665C126.69 143.387 127.903 144.858 129.456 145.893C131.009 146.928 132.834 147.48 134.7 147.48C135.257 147.478 135.813 147.424 136.36 147.32L213.84 257.8L143.84 207.9C144.049 207.103 144.157 206.284 144.16 205.46C144.138 203.594 143.565 201.776 142.513 200.235C141.46 198.693 139.975 197.498 138.245 196.799C136.514 196.1 134.616 195.928 132.788 196.305C130.96 196.683 129.285 197.592 127.973 198.92C126.661 200.247 125.771 201.933 125.415 203.765C125.058 205.597 125.252 207.493 125.971 209.215C126.69 210.937 127.903 212.408 129.456 213.443C131.009 214.478 132.834 215.03 134.7 215.03C135.257 215.026 135.812 214.976 136.36 214.88L210.66 320.82L143.9 273.29C144.057 272.591 144.138 271.877 144.14 271.16C144.118 269.294 143.545 267.476 142.493 265.935C141.44 264.393 139.955 263.198 138.225 262.499C136.494 261.8 134.596 261.628 132.768 262.005C130.94 262.383 129.265 263.292 127.953 264.62C126.641 265.947 125.751 267.633 125.395 269.465C125.038 271.297 125.232 273.193 125.951 274.915C126.67 276.637 127.883 278.108 129.436 279.143C130.989 280.178 132.814 280.73 134.68 280.73C136.339 280.73 137.968 280.288 139.4 279.45L215.72 333.86C215.381 335.257 215.362 336.712 215.664 338.118C215.967 339.523 216.583 340.842 217.467 341.975C218.35 343.109 219.479 344.028 220.768 344.665C222.057 345.301 223.473 345.638 224.91 345.65C226.702 345.643 228.455 345.127 229.965 344.162C231.475 343.197 232.68 341.823 233.44 340.2H304.44C304.046 338.865 303.844 337.482 303.84 336.09C303.845 334.906 303.997 333.727 304.29 332.58H233.7C232.792 330.234 230.995 328.34 228.7 327.31V277.78L304.55 331.86C304.576 331.772 304.606 331.685 304.64 331.6C304.88 330.856 305.181 330.134 305.54 329.44C305.54 329.36 305.62 329.27 305.67 329.19C307.193 326.398 309.599 324.19 312.51 322.91L312.84 322.78C314.501 322.136 316.269 321.814 318.05 321.83C319.314 321.836 320.571 322.008 321.79 322.34V277.34C322.085 277.222 322.372 277.085 322.65 276.93L400.71 332.59H331.89C332 333.02 332.08 333.46 332.15 333.91C332.41 335.473 332.41 337.067 332.15 338.63C332.07 338.78 332.04 338.97 332 339.14ZM221 322.44L150.82 222.3L215.46 268.38C215.46 268.38 215.46 268.48 215.46 268.53C215.457 270.369 215.983 272.17 216.976 273.718C217.969 275.266 219.387 276.496 221.06 277.26L221 322.44ZM221 254.88L150.4 154.14L215.47 200.53C215.47 200.68 215.47 200.82 215.47 200.97C215.465 202.81 215.99 204.612 216.983 206.16C217.977 207.709 219.396 208.938 221.07 209.7L221 254.88ZM221 187.63L149.5 85.63L215.44 132.63C215.44 132.87 215.44 133.11 215.44 133.35C215.433 135.19 215.958 136.993 216.952 138.541C217.945 140.09 219.365 141.319 221.04 142.08L221 187.63ZM228.62 148.14L302.18 253.03L233.74 204.23C234.56 201.953 234.488 199.45 233.538 197.224C232.589 194.998 230.831 193.214 228.62 192.23V148.14ZM233.62 272.03C234.063 270.916 234.29 269.729 234.29 268.53C234.294 266.671 233.757 264.852 232.745 263.293C231.733 261.734 230.289 260.503 228.59 259.75V211.78L308.08 325.12L233.62 272.03ZM314.06 318.03V320.4L244.65 221.4L308.65 267.05C308.574 267.533 308.534 268.021 308.53 268.51C308.528 270.327 309.042 272.108 310.015 273.643C310.987 275.178 312.376 276.405 314.02 277.18L314.06 318.03ZM314.06 224.7V256.76L238.73 149.36L308.73 199.27C308.618 199.836 308.561 200.413 308.56 200.99C308.556 202.808 309.071 204.588 310.043 206.124C311.016 207.66 312.405 208.886 314.05 209.66L314.06 224.7ZM327.19 270.92C327.387 270.145 327.488 269.349 327.49 268.55C327.496 266.67 326.948 264.83 325.915 263.26C324.881 261.69 323.409 260.459 321.68 259.72V214.28L395.56 319.62L327.19 270.92ZM332.19 216.05L402.03 266.05C401.813 266.862 401.702 267.699 401.7 268.54C401.695 270.396 402.23 272.214 403.24 273.772C404.251 275.329 405.693 276.559 407.39 277.31L407.4 323.11L332.19 216.05Z" fill="url(#paint1_linear_20_669)"/>
<path d="M309.61 337.64C309.675 337.979 309.762 338.313 309.87 338.64L309.93 338.82C309.98 338.97 310.03 339.12 310.09 339.26C310.15 339.4 310.2 339.55 310.26 339.69C310.945 341.164 312.037 342.411 313.408 343.286C314.778 344.16 316.37 344.624 317.995 344.624C319.62 344.624 321.212 344.16 322.582 343.286C323.953 342.411 325.045 341.164 325.73 339.69C325.79 339.55 325.84 339.4 325.9 339.26L326.05 338.82L326.11 338.64C326.223 338.314 326.309 337.98 326.37 337.64C326.37 337.64 326.37 337.56 326.37 337.53C326.42 337.29 326.45 337.05 326.48 336.8C326.495 336.51 326.495 336.22 326.48 335.93C326.495 335.664 326.495 335.396 326.48 335.13C326.48 335.02 326.48 334.9 326.48 334.78L326.42 334.39L326.33 333.94L326.27 333.7L326.12 333.18C326.07 333.04 326.03 332.89 325.98 332.75C325.377 331.191 324.332 329.841 322.973 328.868C321.614 327.894 320 327.339 318.33 327.27H318.01C317.049 327.273 316.096 327.439 315.19 327.76L314.97 327.84L314.57 328.01L314.26 328.15L313.94 328.32L313.57 328.54L313.32 328.69L312.86 329.02L312.73 329.12H312.67C312.49 329.26 312.32 329.42 312.16 329.57L312.08 329.64L311.78 329.95L311.64 330.11L311.54 330.22C311.41 330.37 311.28 330.54 311.16 330.7L311.06 330.83C310.94 331 310.83 331.17 310.72 331.35L310.63 331.49L310.34 332.04C310.313 332.085 310.289 332.131 310.27 332.18C310.18 332.359 310.1 332.542 310.03 332.73C310.034 332.77 310.034 332.81 310.03 332.85L309.94 333.11L309.86 333.37V333.49C309.86 333.49 309.86 333.55 309.86 333.57V333.63C309.838 333.709 309.822 333.789 309.81 333.87C309.77 334.008 309.74 334.148 309.72 334.29L309.66 334.68C309.66 334.8 309.66 334.92 309.66 335.03C309.66 335.3 309.66 335.56 309.66 335.83C309.645 336.12 309.645 336.41 309.66 336.7C309.66 336.95 309.73 337.19 309.77 337.43C309.6 337.56 309.6 337.6 309.61 337.64Z" fill="url(#paint2_linear_20_669)"/>
<path d="M332 339.14C331.92 339.5 331.84 339.85 331.73 340.2H402.73C403.641 342.16 405.196 343.748 407.137 344.699C409.077 345.65 411.286 345.906 413.392 345.425C415.499 344.944 417.377 343.755 418.713 342.056C420.048 340.357 420.76 338.251 420.73 336.09C420.735 334.231 420.199 332.411 419.187 330.852C418.175 329.292 416.73 328.062 415.03 327.31L415.12 277.24C417.103 276.338 418.72 274.788 419.703 272.844C420.686 270.9 420.978 268.679 420.529 266.547C420.081 264.415 418.919 262.5 417.236 261.117C415.553 259.734 413.448 258.966 411.27 258.94C409.738 258.939 408.23 259.317 406.88 260.04L327.35 203.04C327.507 202.341 327.588 201.627 327.59 200.91C327.603 198.387 326.614 195.962 324.841 194.167C323.067 192.373 320.653 191.356 318.13 191.34C316.334 191.343 314.577 191.864 313.07 192.84L233.9 136.4C234.219 135.432 234.384 134.419 234.39 133.4C234.397 132.151 234.157 130.913 233.685 129.757C233.213 128.601 232.518 127.548 231.64 126.661C230.762 125.773 229.717 125.067 228.566 124.583C227.414 124.099 226.179 123.847 224.93 123.84C222.816 123.826 220.76 124.531 219.1 125.84L143.97 72.27C144.1 71.6383 144.163 70.9949 144.16 70.35C144.138 68.4838 143.565 66.6658 142.513 65.1246C141.46 63.5835 139.975 62.3881 138.245 61.6889C136.514 60.9898 134.616 60.818 132.788 61.1954C130.96 61.5727 129.285 62.4823 127.973 63.8095C126.661 65.1368 125.771 66.8225 125.415 68.6545C125.058 70.4865 125.252 72.383 125.971 74.1051C126.69 75.8273 127.903 77.2983 129.456 78.333C131.009 79.3677 132.834 79.9199 134.7 79.92C135.193 79.9173 135.684 79.8738 136.17 79.79L213 189.34L143.91 140.09C144.074 139.375 144.158 138.644 144.16 137.91C144.138 136.044 143.565 134.226 142.513 132.685C141.46 131.143 139.975 129.948 138.245 129.249C136.514 128.55 134.616 128.378 132.788 128.755C130.96 129.133 129.285 130.042 127.973 131.37C126.661 132.697 125.771 134.383 125.415 136.215C125.058 138.047 125.252 139.943 125.971 141.665C126.69 143.387 127.903 144.858 129.456 145.893C131.009 146.928 132.834 147.48 134.7 147.48C135.257 147.478 135.813 147.424 136.36 147.32L213.84 257.8L143.84 207.9C144.049 207.103 144.157 206.284 144.16 205.46C144.138 203.594 143.565 201.776 142.513 200.235C141.46 198.693 139.975 197.498 138.245 196.799C136.514 196.1 134.616 195.928 132.788 196.305C130.96 196.683 129.285 197.592 127.973 198.92C126.661 200.247 125.771 201.933 125.415 203.765C125.058 205.597 125.252 207.493 125.971 209.215C126.69 210.937 127.903 212.408 129.456 213.443C131.009 214.478 132.834 215.03 134.7 215.03C135.257 215.026 135.812 214.976 136.36 214.88L210.66 320.82L143.9 273.29C144.057 272.591 144.138 271.877 144.14 271.16C144.118 269.294 143.545 267.476 142.493 265.935C141.44 264.393 139.955 263.198 138.225 262.499C136.494 261.8 134.596 261.628 132.768 262.005C130.94 262.383 129.265 263.292 127.953 264.62C126.641 265.947 125.751 267.633 125.395 269.465C125.038 271.297 125.232 273.193 125.951 274.915C126.67 276.637 127.883 278.108 129.436 279.143C130.989 280.178 132.814 280.73 134.68 280.73C136.339 280.73 137.968 280.288 139.4 279.45L215.72 333.86C215.381 335.257 215.362 336.712 215.664 338.118C215.967 339.523 216.583 340.842 217.467 341.975C218.35 343.109 219.479 344.028 220.768 344.665C222.057 345.301 223.473 345.638 224.91 345.65C226.702 345.643 228.455 345.127 229.965 344.162C231.475 343.197 232.68 341.823 233.44 340.2H304.44C304.046 338.865 303.844 337.482 303.84 336.09C303.845 334.906 303.997 333.727 304.29 332.58H233.7C232.792 330.234 230.995 328.34 228.7 327.31V277.78L304.55 331.86C304.576 331.772 304.606 331.685 304.64 331.6C304.88 330.856 305.181 330.134 305.54 329.44C305.54 329.36 305.62 329.27 305.67 329.19C307.193 326.398 309.599 324.19 312.51 322.91L312.84 322.78C314.501 322.136 316.269 321.814 318.05 321.83C319.314 321.836 320.571 322.008 321.79 322.34V277.34C322.085 277.222 322.372 277.085 322.65 276.93L400.71 332.59H331.89C332 333.02 332.08 333.46 332.15 333.91C332.41 335.473 332.41 337.067 332.15 338.63C332.07 338.78 332.04 338.97 332 339.14ZM221 322.44L150.82 222.3L215.46 268.38C215.46 268.38 215.46 268.48 215.46 268.53C215.457 270.369 215.983 272.17 216.976 273.718C217.969 275.266 219.387 276.496 221.06 277.26L221 322.44ZM221 254.88L150.4 154.14L215.47 200.53C215.47 200.68 215.47 200.82 215.47 200.97C215.465 202.81 215.99 204.612 216.983 206.16C217.977 207.709 219.396 208.938 221.07 209.7L221 254.88ZM221 187.63L149.5 85.63L215.44 132.63C215.44 132.87 215.44 133.11 215.44 133.35C215.433 135.19 215.958 136.993 216.952 138.541C217.945 140.09 219.365 141.319 221.04 142.08L221 187.63ZM228.62 148.14L302.18 253.03L233.74 204.23C234.56 201.953 234.488 199.45 233.538 197.224C232.589 194.998 230.831 193.214 228.62 192.23V148.14ZM233.62 272.03C234.063 270.916 234.29 269.729 234.29 268.53C234.294 266.671 233.757 264.852 232.745 263.293C231.733 261.734 230.289 260.503 228.59 259.75V211.78L308.08 325.12L233.62 272.03ZM314.06 318.03V320.4L244.65 221.4L308.65 267.05C308.574 267.533 308.534 268.021 308.53 268.51C308.528 270.327 309.042 272.108 310.015 273.643C310.987 275.178 312.376 276.405 314.02 277.18L314.06 318.03ZM314.06 224.7V256.76L238.73 149.36L308.73 199.27C308.618 199.836 308.561 200.413 308.56 200.99C308.556 202.808 309.071 204.588 310.043 206.124C311.016 207.66 312.405 208.886 314.05 209.66L314.06 224.7ZM327.19 270.92C327.387 270.145 327.488 269.349 327.49 268.55C327.496 266.67 326.948 264.83 325.915 263.26C324.881 261.69 323.409 260.459 321.68 259.72V214.28L395.56 319.62L327.19 270.92ZM332.19 216.05L402.03 266.05C401.813 266.862 401.702 267.699 401.7 268.54C401.695 270.396 402.23 272.214 403.24 273.772C404.251 275.329 405.693 276.559 407.39 277.31L407.4 323.11L332.19 216.05Z" fill="url(#paint3_linear_20_669)"/>
<path d="M630.12 335.3C629.74 334.499 629.295 333.729 628.79 333C616.79 315.25 600.48 307.36 581.4 306.27C579.561 306.211 577.753 305.781 576.085 305.006C574.416 304.231 572.921 303.127 571.69 301.76C564.69 294.61 557.12 288.43 548.46 284.21C510.3 265.65 474.25 272.78 439.55 295.83C436.85 297.62 434.07 299.98 436.14 304.11C436.2 304.23 436.26 304.32 436.32 304.43C438.51 308.43 441.63 307.1 444.5 304.98C455.304 296.923 467.66 291.192 480.79 288.15C513.15 280.76 543.18 285.45 567.95 313.27C570.66 316.32 573.6 317.21 577.2 317.34C584.34 317.6 591.53 317.84 598.2 321.82C587.2 323.17 576.84 327.04 566.49 330.82C562.91 332.13 561.57 335.04 562.75 338.88C563.82 342.35 566.42 342.74 569.3 341.59C589.13 333.69 609.21 330.03 630.4 337.9C630.393 337.026 630.299 336.155 630.12 335.3Z" fill="url(#paint4_linear_20_669)"/>
<path d="M419.87 460.78C419.87 460.66 419.87 460.55 419.87 460.43L419.81 460.03L419.72 459.58L419.66 459.35L419.51 458.83C419.51 458.68 419.42 458.53 419.37 458.39C418.767 456.831 417.722 455.481 416.363 454.508C415.004 453.534 413.39 452.979 411.72 452.91H411.39C410.432 452.913 409.482 453.079 408.58 453.4L408.36 453.48L407.96 453.64L407.65 453.79L407.33 453.96C407.2 454.02 407.08 454.1 406.96 454.17L406.71 454.33C406.55 454.431 406.397 454.541 406.25 454.66L406.12 454.75H406.06C405.881 454.889 405.711 455.04 405.55 455.2C405.519 455.218 405.492 455.242 405.47 455.27L405.17 455.58L405.03 455.73L404.93 455.84L404.54 456.33L404.45 456.46C404.327 456.627 404.214 456.801 404.11 456.98L404.02 457.12L403.72 457.67V457.72H326.23C325.561 456.32 324.523 455.129 323.228 454.275C321.933 453.42 320.43 452.935 318.88 452.87H318.56C317.599 452.873 316.646 453.039 315.74 453.36L315.52 453.44L315.12 453.6L314.81 453.75L314.49 453.92C314.36 453.98 314.24 454.06 314.12 454.13L313.87 454.29C313.71 454.391 313.557 454.501 313.41 454.62L313.28 454.71H313.22C313.041 454.849 312.871 455 312.71 455.16L312.63 455.23L312.33 455.54L312.19 455.69L312.09 455.8L311.7 456.29L311.61 456.42C311.487 456.587 311.374 456.761 311.27 456.94L311.18 457.08L310.88 457.63L310.82 457.77C310.727 457.95 310.647 458.13 310.58 458.31C310.584 458.35 310.584 458.39 310.58 458.43L310.49 458.7C310.471 458.785 310.448 458.868 310.42 458.95V459.08V459.16V459.22L310.36 459.45C310.36 459.59 310.3 459.73 310.28 459.88L310.22 460.28C310.22 460.4 310.22 460.51 310.22 460.63C310.205 460.893 310.205 461.157 310.22 461.42C310.205 461.71 310.205 462 310.22 462.29C310.22 462.54 310.29 462.78 310.33 463.02C310.33 463.02 310.33 463.1 310.33 463.13C310.39 463.47 310.477 463.804 310.59 464.13L310.65 464.31C310.7 464.45 310.75 464.6 310.81 464.75C310.87 464.89 310.92 465.04 310.98 465.18C311.659 466.65 312.742 467.896 314.104 468.771C315.466 469.647 317.049 470.116 318.668 470.123C320.287 470.13 321.874 469.676 323.244 468.813C324.613 467.95 325.708 466.714 326.4 465.25H403.81C404.502 466.714 405.597 467.95 406.967 468.813C408.336 469.676 409.923 470.13 411.542 470.123C413.161 470.116 414.744 469.647 416.106 468.771C417.468 467.896 418.552 466.65 419.23 465.18C419.29 465.04 419.34 464.89 419.4 464.75C419.46 464.6 419.51 464.45 419.56 464.31L419.62 464.13C419.733 463.804 419.82 463.47 419.88 463.13C419.88 463.13 419.88 463.06 419.88 463.02C419.88 462.78 419.96 462.54 419.99 462.29C420.005 462 420.005 461.71 419.99 461.42C419.91 461.3 419.89 461.04 419.87 460.78Z" fill="url(#paint5_linear_20_669)"/>
<path d="M452.4 497.78C453.092 499.244 454.187 500.479 455.556 501.343C456.926 502.206 458.513 502.66 460.132 502.653C461.751 502.646 463.334 502.177 464.696 501.301C466.058 500.426 467.141 499.18 467.82 497.71C467.88 497.57 467.93 497.42 467.99 497.28L468.14 496.84L468.2 496.66C468.313 496.334 468.4 496 468.46 495.66C468.46 495.66 468.46 495.59 468.46 495.55C468.46 495.31 468.54 495.07 468.57 494.82C468.585 494.53 468.585 494.24 468.57 493.95C468.585 493.687 468.585 493.423 468.57 493.16C468.57 493.04 468.57 492.93 468.57 492.81L468.51 492.41L468.42 491.96L468.36 491.73L468.21 491.21C468.21 491.06 468.12 490.91 468.07 490.77C467.467 489.211 466.422 487.861 465.063 486.888C463.704 485.914 462.09 485.359 460.42 485.29H460.1C459.139 485.293 458.186 485.459 457.28 485.78L457.06 485.86L456.66 486.02L456.35 486.17L456.03 486.34L455.66 486.55L455.41 486.71C455.26 486.81 455.1 486.92 454.95 487.04L454.82 487.13L454.76 487.18C454.581 487.319 454.41 487.47 454.25 487.63L454.17 487.7L453.87 488.01L453.73 488.16L453.63 488.27C453.5 488.43 453.37 488.59 453.25 488.76C453.214 488.801 453.18 488.844 453.15 488.89C453.03 489.06 452.92 489.23 452.81 489.41L452.72 489.55C452.62 489.73 452.52 489.91 452.43 490.1V490.15H374.94C374.269 488.752 373.231 487.562 371.936 486.707C370.642 485.853 369.14 485.367 367.59 485.3H367.27C366.309 485.303 365.356 485.469 364.45 485.79L364.23 485.87L363.83 486.03L363.52 486.18L363.2 486.35L362.83 486.56L362.58 486.72C362.43 486.82 362.27 486.93 362.12 487.05L361.99 487.14L361.93 487.19C361.751 487.329 361.58 487.48 361.42 487.64L361.34 487.71L361.04 488.02L360.9 488.17L360.8 488.28C360.67 488.44 360.54 488.6 360.42 488.77C360.384 488.811 360.35 488.854 360.32 488.9C360.2 489.07 360.09 489.24 359.98 489.42L359.89 489.56C359.79 489.74 359.69 489.92 359.6 490.11V490.16C359.52 490.34 359.43 490.52 359.36 490.7V490.82C359.329 490.909 359.302 490.999 359.28 491.09C359.28 491.17 359.28 491.26 359.2 491.34V491.47C359.2 491.47 359.2 491.52 359.2 491.55C359.2 491.58 359.2 491.55 359.2 491.61C359.171 491.684 359.151 491.761 359.14 491.84C359.099 491.981 359.069 492.125 359.05 492.27L358.99 492.67C358.99 492.79 358.99 492.9 358.99 493.02C358.99 493.14 358.99 493.54 358.99 493.81C358.99 494.08 358.99 494.4 358.99 494.68C358.99 494.96 359.06 495.17 359.1 495.41C359.1 495.41 359.1 495.49 359.1 495.52C359.165 495.859 359.251 496.193 359.36 496.52L359.42 496.7C359.47 496.84 359.52 496.99 359.58 497.14L359.65 497.32C359.613 497.429 359.569 497.536 359.52 497.64H359.8C360.49 499.096 361.579 500.326 362.94 501.187C364.301 502.048 365.879 502.505 367.49 502.505C369.101 502.505 370.679 502.048 372.04 501.187C373.401 500.326 374.49 499.096 375.18 497.64L452.4 497.78Z" fill="url(#paint6_linear_20_669)"/>
<path d="M513.19 526.04C513.19 525.92 513.19 525.81 513.19 525.69L513.13 525.29L513.04 524.84L512.98 524.61L512.83 524.09C512.83 523.94 512.75 523.79 512.69 523.65C512.088 522.09 511.044 520.74 509.684 519.766C508.325 518.792 506.711 518.238 505.04 518.17H504.72C503.762 518.172 502.812 518.338 501.91 518.66L501.68 518.74L501.28 518.9L500.97 519.05L500.65 519.22C500.52 519.28 500.4 519.36 500.28 519.43L500.03 519.59C499.88 519.69 499.72 519.8 499.57 519.92L499.44 520.01H499.39C499.22 520.15 499.04 520.3 498.88 520.46L498.8 520.53L498.5 520.84L498.36 520.99L498.26 521.1C498.13 521.26 498 521.42 497.88 521.59C497.844 521.631 497.81 521.674 497.78 521.72C497.66 521.89 497.55 522.06 497.44 522.24L497.35 522.38C497.25 522.56 497.15 522.74 497.06 522.93H419.55C418.879 521.532 417.841 520.342 416.547 519.487C415.252 518.633 413.75 518.147 412.2 518.08H411.88C410.922 518.082 409.972 518.248 409.07 518.57L408.84 518.65L408.44 518.81L408.14 518.96L407.81 519.13L407.44 519.34L407.2 519.5C407.037 519.601 406.88 519.711 406.73 519.83L406.6 519.92H406.55C406.383 520.06 406.213 520.21 406.04 520.37L405.96 520.44L405.66 520.75L405.52 520.9L405.43 521.01C405.292 521.167 405.161 521.33 405.04 521.5L404.94 521.63C404.82 521.8 404.71 521.97 404.6 522.15C404.568 522.193 404.541 522.24 404.52 522.29C404.41 522.468 404.31 522.652 404.22 522.84C404.22 522.84 404.22 522.93 404.15 522.98L403.91 523.52V523.64C403.91 523.73 403.86 523.82 403.83 523.91C403.83 523.99 403.78 524.08 403.75 524.16V524.29V524.37V524.43L403.69 524.66C403.65 524.801 403.619 524.945 403.6 525.09L403.54 525.49C403.54 525.61 403.54 525.72 403.54 525.84C403.54 525.96 403.54 526.36 403.54 526.63C403.54 526.9 403.54 527.22 403.54 527.5C403.54 527.78 403.61 527.99 403.65 528.23C403.65 528.23 403.65 528.31 403.65 528.34C403.719 528.678 403.806 529.011 403.91 529.34L403.97 529.52C404.02 529.66 404.07 529.81 404.13 529.96C404.19 530.1 404.24 530.25 404.31 530.39C404.989 531.86 406.072 533.106 407.434 533.981C408.796 534.857 410.379 535.326 411.998 535.333C413.617 535.34 415.204 534.886 416.574 534.023C417.943 533.16 419.038 531.924 419.73 530.46H497.13C497.822 531.924 498.917 533.16 500.286 534.023C501.656 534.886 503.243 535.34 504.862 535.333C506.481 535.326 508.064 534.857 509.426 533.981C510.788 533.106 511.871 531.86 512.55 530.39C512.615 530.25 512.672 530.107 512.72 529.96C512.78 529.81 512.82 529.66 512.87 529.52L512.94 529.34C513.044 529.011 513.131 528.678 513.2 528.34C513.2 528.34 513.2 528.27 513.2 528.23C513.252 527.989 513.289 527.745 513.31 527.5C513.325 527.21 513.325 526.92 513.31 526.63C513.279 526.432 513.239 526.235 513.19 526.04Z" fill="url(#paint7_linear_20_669)"/>
<path d="M138.54 387.22C138.04 388.88 137.47 390.98 136.81 393.53C136.15 396.08 135.5 398.79 134.81 401.64C134.31 403.76 133.81 405.79 133.38 407.78C132.92 405.78 132.44 403.78 131.93 401.6C131.263 398.753 130.597 396.057 129.93 393.51C129.26 390.97 128.67 388.88 128.18 387.22L119.25 359.98H94V429.62H110.5V399.52C110.5 397.96 110.467 395.987 110.4 393.6C110.333 391.213 110.263 388.63 110.19 385.85C110.123 383.057 110.053 380.243 109.98 377.41C109.98 377.22 109.98 377.05 109.98 376.87C110.07 377.18 110.14 377.47 110.23 377.78C111.01 380.653 111.773 383.46 112.52 386.2C113.267 388.94 113.983 391.463 114.67 393.77C115.35 396.08 115.93 397.99 116.4 399.52L126.54 429.62H140.19L150.19 399.52C150.69 397.99 151.27 396.08 151.92 393.77C152.57 391.46 153.28 388.94 154.03 386.2C154.78 383.46 155.52 380.64 156.27 377.76C156.43 377.12 156.59 376.51 156.75 375.88C156.75 376.41 156.75 376.88 156.75 377.46C156.67 380.29 156.6 383.1 156.52 385.87C156.44 388.64 156.37 391.22 156.31 393.6C156.25 395.98 156.21 397.96 156.21 399.52V429.62H172.71V359.98H147.4L138.54 387.22Z" fill="#F0F0F1"/>
<path d="M182.47 429.62H232.76V415.69H199.16V401.34H230.15V387.74H199.16V373.91H232.76V359.98H182.47V429.62Z" fill="#F0F0F1"/>
<path d="M285.46 364.21C279.803 361.271 273.493 359.816 267.12 359.98H241.4V429.62H267.15C274.25 429.62 280.38 428.21 285.54 425.39C290.619 422.658 294.774 418.482 297.48 413.39C300.408 407.634 301.845 401.235 301.66 394.78C301.66 387.613 300.25 381.427 297.43 376.22C294.706 371.128 290.543 366.95 285.46 364.21ZM282.87 406.55C281.646 409.459 279.461 411.859 276.68 413.35C273.459 414.921 269.901 415.677 266.32 415.55H258.05V374.05H266.05C269.672 373.923 273.271 374.674 276.54 376.24C279.34 377.719 281.549 380.111 282.8 383.02C284.327 386.747 285.05 390.754 284.92 394.78C285.061 398.803 284.363 402.811 282.87 406.55Z" fill="#F0F0F1"/>
<path d="M326.34 359.98H309.65V429.62H326.34V359.98Z" fill="#F0F0F1"/>
<path d="M353.92 359.98L330.32 429.62H348.59L352.99 415.62H376.99L381.39 429.62H400.04L376.04 359.98H353.92ZM357.04 402.7L358.17 399.1C359.697 394.02 361.17 388.76 362.59 383.32C363.35 380.39 364.14 377.32 364.93 374.22C365.743 377.34 366.543 380.367 367.33 383.3C368.803 388.72 370.3 393.987 371.82 399.1L372.95 402.7H357.04Z" fill="#F0F0F1"/>
<path d="M420.71 359.98H404.03V429.62H450.77V415.69H420.71V359.98Z" fill="#F0F0F1"/>
<path d="M418.36 360.11H401.67V429.75H448.41V415.82H418.36V360.11Z" fill="#F0F0F1"/>
<path d="M474.84 359.98H458.15V429.62H474.84V359.98Z" fill="#F0F0F1"/>
<path d="M482.22 373.91H502.97V429.62H519.61V373.91H540.36V359.98H482.22V373.91Z" fill="#F0F0F1"/>
<path d="M590.4 359.98L579.96 380.78C578.993 382.653 578.097 384.547 577.27 386.46C576.92 387.27 576.57 388.12 576.27 388.98C575.9 388.12 575.53 387.28 575.17 386.48C574.31 384.58 573.39 382.68 572.39 380.78L561.4 359.98H542.1L567.95 404.57V429.62H584.3V404.57L609.59 359.98H590.4Z" fill="#F0F0F1"/>
<path d="M650.9 409.43C649.327 412.215 646.764 414.306 643.72 415.29C642.058 415.817 640.323 416.077 638.58 416.06C635.423 416.148 632.313 415.287 629.65 413.59C627.059 411.811 625.065 409.291 623.93 406.36C621.27 398.924 621.27 390.796 623.93 383.36C625.073 380.412 627.063 377.868 629.65 376.05C632.317 374.296 635.459 373.406 638.65 373.5C640.4 373.483 642.141 373.743 643.81 374.27C645.328 374.757 646.739 375.527 647.97 376.54C649.191 377.546 650.209 378.774 650.97 380.16C651.774 381.656 652.325 383.274 652.6 384.95H669.4C668.969 381.159 667.833 377.483 666.05 374.11C664.381 370.966 662.111 368.18 659.37 365.91C656.566 363.608 653.358 361.848 649.91 360.72C646.137 359.491 642.189 358.883 638.22 358.92C632.312 358.832 626.482 360.279 621.3 363.12C616.236 365.977 612.104 370.233 609.4 375.38C606.48 380.713 605.023 387.2 605.03 394.84C605.037 402.48 606.493 408.94 609.4 414.22C612.1 419.353 616.225 423.596 621.28 426.44C626.485 429.295 632.344 430.746 638.28 430.65C642.426 430.71 646.551 430.033 650.46 428.65C653.943 427.393 657.162 425.497 659.95 423.06C662.603 420.731 664.791 417.922 666.4 414.78C667.987 411.609 669.003 408.183 669.4 404.66H652.6C652.294 406.331 651.72 407.942 650.9 409.43Z" fill="#F0F0F1"/>
<defs>
<linearGradient id="paint0_linear_20_669" x1="-207.331" y1="336.09" x2="707.981" y2="336.09" gradientUnits="userSpaceOnUse">
<stop stop-color="#2A2764"/>
<stop offset="0.64" stop-color="#00A79D"/>
<stop offset="1" stop-color="#2699D5"/>
</linearGradient>
<linearGradient id="paint1_linear_20_669" x1="-136.6" y1="203.24" x2="731.17" y2="203.24" gradientUnits="userSpaceOnUse">
<stop stop-color="#2A2764"/>
<stop offset="0.64" stop-color="#00A79D"/>
<stop offset="1" stop-color="#2699D5"/>
</linearGradient>
<linearGradient id="paint2_linear_20_669" x1="-158.341" y1="335.93" x2="671.611" y2="335.93" gradientUnits="userSpaceOnUse">
<stop stop-color="#2A2764"/>
<stop offset="0.64" stop-color="#00A79D"/>
<stop offset="1" stop-color="#2699D5"/>
</linearGradient>
<linearGradient id="paint3_linear_20_669" x1="-136.6" y1="203.24" x2="731.17" y2="203.24" gradientUnits="userSpaceOnUse">
<stop stop-color="#2A2764"/>
<stop offset="0.64" stop-color="#00A79D"/>
<stop offset="1" stop-color="#2699D5"/>
</linearGradient>
<linearGradient id="paint4_linear_20_669" x1="-140.7" y1="307.92" x2="727.07" y2="307.92" gradientUnits="userSpaceOnUse">
<stop stop-color="#2A2764"/>
<stop offset="0.64" stop-color="#00A79D"/>
<stop offset="1" stop-color="#2699D5"/>
</linearGradient>
<linearGradient id="paint5_linear_20_669" x1="-2688.02" y1="461.57" x2="2631.11" y2="461.57" gradientUnits="userSpaceOnUse">
<stop stop-color="#2A2764"/>
<stop offset="0.64" stop-color="#00A79D"/>
<stop offset="1" stop-color="#2699D5"/>
</linearGradient>
<linearGradient id="paint6_linear_20_669" x1="-2639.31" y1="493.92" x2="2679.82" y2="493.92" gradientUnits="userSpaceOnUse">
<stop stop-color="#2A2764"/>
<stop offset="0.64" stop-color="#00A79D"/>
<stop offset="1" stop-color="#2699D5"/>
</linearGradient>
<linearGradient id="paint7_linear_20_669" x1="-2594.7" y1="526.83" x2="2724.44" y2="526.83" gradientUnits="userSpaceOnUse">
<stop stop-color="#2A2764"/>
<stop offset="0.64" stop-color="#00A79D"/>
<stop offset="1" stop-color="#2699D5"/>
</linearGradient>
</defs>
</svg>
