<svg width="576" height="475" viewBox="0 0 576 475" fill="none" xmlns="http://www.w3.org/2000/svg">
<path d="M214.74 276.97C214.82 277.34 214.92 277.69 215.03 278.05L215.1 278.24C215.16 278.4 215.21 278.57 215.27 278.73C215.33 278.89 215.39 279.05 215.46 279.2C216.212 280.828 217.414 282.207 218.925 283.173C220.436 284.14 222.192 284.653 223.985 284.653C225.779 284.653 227.534 284.14 229.045 283.173C230.556 282.207 231.758 280.828 232.51 279.2C232.59 279.05 232.64 278.89 232.71 278.73C232.776 278.57 232.832 278.406 232.88 278.24C232.908 278.178 232.931 278.115 232.95 278.05C233.071 277.697 233.168 277.336 233.24 276.97C233.24 276.97 233.24 276.89 233.24 276.85C233.29 276.58 233.33 276.32 233.36 276.05C233.39 275.78 233.36 275.41 233.36 275.05C233.375 274.757 233.375 274.463 233.36 274.17C233.36 274.04 233.36 273.91 233.36 273.78L233.3 273.35C233.3 273.18 233.23 273.01 233.19 272.85L233.13 272.59C233.13 272.4 233.03 272.21 232.96 272.02C232.96 271.86 232.87 271.69 232.81 271.54C232.145 269.819 230.993 268.33 229.493 267.255C227.994 266.18 226.213 265.567 224.37 265.49H224.02C222.963 265.489 221.914 265.671 220.92 266.03L220.67 266.11L220.23 266.3L219.89 266.46L219.53 266.64L219.12 266.88L218.85 267.05L218.34 267.42L218.2 267.52L218.14 267.57L217.58 268.07L217.49 268.15L217.16 268.49L217 268.66L216.9 268.78C216.75 268.95 216.61 269.13 216.47 269.32L216.36 269.46C216.23 269.64 216.11 269.83 215.99 270.03L215.89 270.18L215.57 270.79C215.57 270.79 215.52 270.89 215.49 270.95C215.46 271.01 215.31 271.34 215.23 271.55V271.6V271.73C215.23 271.83 215.16 271.93 215.13 272.03C215.13 272.12 215.13 272.21 215.05 272.31C214.97 272.41 215.05 272.4 215 272.45C214.95 272.5 215 272.51 215 272.54C215 272.57 215 272.54 215 272.6L214.94 272.86C214.94 273.01 214.87 273.17 214.84 273.33L214.78 273.76C214.78 273.89 214.78 274.02 214.73 274.15C214.73 274.44 214.73 274.73 214.73 275.03C214.708 275.363 214.708 275.697 214.73 276.03C214.73 276.3 214.8 276.56 214.84 276.83C214.815 276.882 214.781 276.929 214.74 276.97Z" fill="url(#paint0_linear_19_668)"/>
<path d="M238 278.14C237.92 278.5 237.84 278.85 237.73 279.2H308.73C309.641 281.16 311.196 282.748 313.137 283.699C315.077 284.65 317.286 284.906 319.392 284.425C321.499 283.944 323.377 282.755 324.713 281.056C326.048 279.357 326.76 277.251 326.73 275.09C326.735 273.231 326.199 271.411 325.187 269.852C324.175 268.292 322.73 267.062 321.03 266.31L321.12 216.24C323.103 215.338 324.72 213.788 325.703 211.844C326.686 209.9 326.978 207.679 326.529 205.547C326.081 203.415 324.919 201.5 323.236 200.117C321.553 198.734 319.448 197.966 317.27 197.94C315.738 197.939 314.23 198.317 312.88 199.04L233.35 142.04C233.507 141.341 233.588 140.627 233.59 139.91C233.603 137.387 232.614 134.962 230.841 133.167C229.067 131.373 226.653 130.356 224.13 130.34C222.334 130.343 220.577 130.864 219.07 131.84L139.9 75.4C140.219 74.4317 140.384 73.4195 140.39 72.4C140.397 71.1511 140.157 69.9132 139.685 68.7569C139.213 67.6005 138.518 66.5485 137.64 65.6607C136.762 64.773 135.717 64.067 134.566 63.583C133.414 63.099 132.179 62.8466 130.93 62.84C128.816 62.8262 126.76 63.5315 125.1 64.84L49.9701 11.27C50.0996 10.6383 50.1633 9.99486 50.1601 9.35001C50.1384 7.48384 49.5652 5.66578 48.5126 4.12463C47.46 2.58348 45.9751 1.3881 44.2447 0.688928C42.5143 -0.010239 40.6158 -0.181961 38.788 0.195383C36.9602 0.572726 35.2849 1.48227 33.9729 2.80955C32.6609 4.13683 31.7708 5.82254 31.4146 7.65453C31.0584 9.48653 31.252 11.383 31.9712 13.1051C32.6903 14.8273 33.9028 16.2983 35.456 17.333C37.0092 18.3677 38.8337 18.9199 40.7 18.92C41.1928 18.9173 41.6845 18.8738 42.17 18.79L119 128.34L49.9101 79.09C50.0743 78.3749 50.1582 77.6437 50.1601 76.91C50.1384 75.0438 49.5652 73.2258 48.5126 71.6846C47.46 70.1435 45.9751 68.9481 44.2447 68.2489C42.5143 67.5498 40.6158 67.378 38.788 67.7554C36.9602 68.1327 35.2849 69.0423 33.9729 70.3695C32.6609 71.6968 31.7708 73.3826 31.4146 75.2145C31.0584 77.0465 31.252 78.9429 31.9712 80.6651C32.6903 82.3873 33.9028 83.8583 35.456 84.893C37.0092 85.9277 38.8337 86.4799 40.7 86.48C41.2571 86.4778 41.8128 86.4242 42.3601 86.32L119.84 196.8L49.8401 146.9C50.0491 146.103 50.1567 145.284 50.1601 144.46C50.1384 142.594 49.5652 140.776 48.5126 139.235C47.46 137.693 45.9751 136.498 44.2447 135.799C42.5143 135.1 40.6158 134.928 38.788 135.305C36.9602 135.683 35.2849 136.592 33.9729 137.92C32.6609 139.247 31.7708 140.933 31.4146 142.765C31.0584 144.597 31.252 146.493 31.9712 148.215C32.6903 149.937 33.9028 151.408 35.456 152.443C37.0092 153.478 38.8337 154.03 40.7 154.03C41.2566 154.026 41.8119 153.976 42.3601 153.88L116.66 259.82L49.9001 212.29C50.0572 211.591 50.1377 210.877 50.1401 210.16C50.1183 208.294 49.5451 206.476 48.4926 204.935C47.44 203.393 45.9551 202.198 44.2247 201.499C42.4943 200.8 40.5958 200.628 38.768 201.005C36.9403 201.383 35.2649 202.292 33.9529 203.62C32.6409 204.947 31.7508 206.633 31.3946 208.465C31.0384 210.297 31.2321 212.193 31.9512 213.915C32.6703 215.637 33.8828 217.108 35.436 218.143C36.9892 219.178 38.8138 219.73 40.6801 219.73C42.3392 219.73 43.9683 219.288 45.4001 218.45L121.72 272.86C121.381 274.257 121.362 275.712 121.664 277.118C121.967 278.523 122.583 279.842 123.467 280.975C124.35 282.109 125.479 283.028 126.768 283.665C128.057 284.301 129.473 284.638 130.91 284.65C132.702 284.643 134.455 284.127 135.965 283.162C137.475 282.197 138.68 280.823 139.44 279.2H210.44C210.046 277.865 209.844 276.482 209.84 275.09C209.845 273.906 209.997 272.727 210.29 271.58H139.7C138.792 269.234 136.995 267.34 134.7 266.31V216.78L210.55 270.86C210.576 270.772 210.606 270.685 210.64 270.6C210.88 269.856 211.181 269.134 211.54 268.44C211.54 268.36 211.62 268.27 211.67 268.19C213.193 265.398 215.599 263.19 218.51 261.91L218.84 261.78C220.501 261.136 222.269 260.814 224.05 260.83C225.314 260.836 226.571 261.008 227.79 261.34V216.34C228.085 216.222 228.372 216.085 228.65 215.93L306.71 271.59H237.89C238 272.02 238.08 272.46 238.15 272.91C238.41 274.473 238.41 276.067 238.15 277.63C238.07 277.78 238.04 277.97 238 278.14ZM127 261.44L56.8201 161.3L121.46 207.38C121.46 207.38 121.46 207.48 121.46 207.53C121.457 209.369 121.983 211.17 122.976 212.718C123.969 214.266 125.387 215.496 127.06 216.26L127 261.44ZM127 193.88L56.4001 93.14L121.47 139.53C121.47 139.68 121.47 139.82 121.47 139.97C121.465 141.81 121.99 143.612 122.983 145.16C123.977 146.709 125.396 147.938 127.07 148.7L127 193.88ZM127 126.63L55.5001 24.63L121.44 71.63C121.44 71.87 121.44 72.11 121.44 72.35C121.433 74.19 121.958 75.9927 122.952 77.5415C123.945 79.0902 125.365 80.319 127.04 81.08L127 126.63ZM134.62 87.14L208.18 192.03L139.74 143.23C140.56 140.953 140.488 138.45 139.538 136.224C138.589 133.998 136.831 132.214 134.62 131.23V87.14ZM139.62 211.03C140.063 209.916 140.29 208.729 140.29 207.53C140.294 205.671 139.757 203.852 138.745 202.293C137.733 200.734 136.289 199.503 134.59 198.75V150.78L214.08 264.12L139.62 211.03ZM220.06 257.03V259.4L150.65 160.4L214.65 206.05C214.574 206.533 214.534 207.021 214.53 207.51C214.528 209.327 215.042 211.108 216.015 212.643C216.987 214.178 218.376 215.405 220.02 216.18L220.06 257.03ZM220.06 163.7V195.76L144.73 88.36L214.73 138.27C214.618 138.836 214.561 139.413 214.56 139.99C214.556 141.808 215.071 143.588 216.043 145.124C217.016 146.66 218.405 147.886 220.05 148.66L220.06 163.7ZM233.19 209.92C233.387 209.145 233.488 208.349 233.49 207.55C233.496 205.67 232.948 203.83 231.915 202.26C230.881 200.69 229.409 199.459 227.68 198.72V153.28L301.56 258.62L233.19 209.92ZM238.19 155.05L308.03 205.05C307.813 205.862 307.702 206.699 307.7 207.54C307.695 209.396 308.23 211.214 309.24 212.772C310.251 214.329 311.693 215.559 313.39 216.31L313.4 262.11L238.19 155.05Z" fill="url(#paint1_linear_19_668)"/>
<path d="M215.61 276.64C215.675 276.979 215.762 277.313 215.87 277.64L215.93 277.82C215.98 277.97 216.03 278.12 216.09 278.26C216.15 278.4 216.2 278.55 216.26 278.69C216.945 280.164 218.037 281.411 219.408 282.286C220.778 283.16 222.37 283.624 223.995 283.624C225.62 283.624 227.212 283.16 228.582 282.286C229.953 281.411 231.045 280.164 231.73 278.69C231.79 278.55 231.84 278.4 231.9 278.26L232.05 277.82L232.11 277.64C232.223 277.314 232.309 276.98 232.37 276.64C232.37 276.64 232.37 276.56 232.37 276.53C232.42 276.29 232.45 276.05 232.48 275.8C232.495 275.51 232.495 275.22 232.48 274.93C232.495 274.664 232.495 274.396 232.48 274.13C232.48 274.02 232.48 273.9 232.48 273.78L232.42 273.39L232.33 272.94L232.27 272.7L232.12 272.18C232.07 272.04 232.03 271.89 231.98 271.75C231.377 270.191 230.332 268.841 228.973 267.868C227.614 266.894 226 266.339 224.33 266.27H224.01C223.049 266.273 222.096 266.439 221.19 266.76L220.97 266.84L220.57 267.01L220.26 267.15L219.94 267.32L219.57 267.54L219.32 267.69L218.86 268.02L218.73 268.12H218.67C218.49 268.26 218.32 268.42 218.16 268.57L218.08 268.64L217.78 268.95L217.64 269.11L217.54 269.22C217.41 269.37 217.28 269.54 217.16 269.7L217.06 269.83C216.94 270 216.83 270.17 216.72 270.35L216.63 270.49L216.34 271.04C216.313 271.085 216.289 271.131 216.27 271.18C216.18 271.359 216.1 271.542 216.03 271.73C216.034 271.77 216.034 271.81 216.03 271.85L215.94 272.11L215.86 272.37V272.49C215.86 272.49 215.86 272.55 215.86 272.57V272.63C215.838 272.709 215.822 272.789 215.81 272.87C215.77 273.008 215.74 273.148 215.72 273.29L215.66 273.68C215.66 273.8 215.66 273.92 215.66 274.03C215.66 274.3 215.66 274.56 215.66 274.83C215.645 275.12 215.645 275.41 215.66 275.7C215.66 275.95 215.73 276.19 215.77 276.43C215.6 276.56 215.6 276.6 215.61 276.64Z" fill="url(#paint2_linear_19_668)"/>
<path d="M238 278.14C237.92 278.5 237.84 278.85 237.73 279.2H308.73C309.641 281.16 311.196 282.748 313.137 283.699C315.077 284.65 317.286 284.906 319.392 284.425C321.499 283.944 323.377 282.755 324.713 281.056C326.048 279.357 326.76 277.251 326.73 275.09C326.735 273.231 326.199 271.411 325.187 269.852C324.175 268.292 322.73 267.062 321.03 266.31L321.12 216.24C323.103 215.338 324.72 213.788 325.703 211.844C326.686 209.9 326.978 207.679 326.529 205.547C326.081 203.415 324.919 201.5 323.236 200.117C321.553 198.734 319.448 197.966 317.27 197.94C315.738 197.939 314.23 198.317 312.88 199.04L233.35 142.04C233.507 141.341 233.588 140.627 233.59 139.91C233.603 137.387 232.614 134.962 230.841 133.167C229.067 131.373 226.653 130.356 224.13 130.34C222.334 130.343 220.577 130.864 219.07 131.84L139.9 75.4C140.219 74.4317 140.384 73.4195 140.39 72.4C140.397 71.1511 140.157 69.9132 139.685 68.7569C139.213 67.6005 138.518 66.5485 137.64 65.6607C136.762 64.773 135.717 64.067 134.566 63.583C133.414 63.099 132.179 62.8466 130.93 62.84C128.816 62.8262 126.76 63.5315 125.1 64.84L49.9701 11.27C50.0996 10.6383 50.1633 9.99486 50.1601 9.35001C50.1384 7.48384 49.5652 5.66578 48.5126 4.12463C47.46 2.58348 45.9751 1.3881 44.2447 0.688928C42.5143 -0.010239 40.6158 -0.181961 38.788 0.195383C36.9602 0.572726 35.2849 1.48227 33.9729 2.80955C32.6609 4.13683 31.7708 5.82254 31.4146 7.65453C31.0584 9.48653 31.252 11.383 31.9712 13.1051C32.6903 14.8273 33.9028 16.2983 35.456 17.333C37.0092 18.3677 38.8337 18.9199 40.7 18.92C41.1928 18.9173 41.6845 18.8738 42.17 18.79L119 128.34L49.9101 79.09C50.0743 78.3749 50.1582 77.6437 50.1601 76.91C50.1384 75.0438 49.5652 73.2258 48.5126 71.6846C47.46 70.1435 45.9751 68.9481 44.2447 68.2489C42.5143 67.5498 40.6158 67.378 38.788 67.7554C36.9602 68.1327 35.2849 69.0423 33.9729 70.3695C32.6609 71.6968 31.7708 73.3826 31.4146 75.2145C31.0584 77.0465 31.252 78.9429 31.9712 80.6651C32.6903 82.3873 33.9028 83.8583 35.456 84.893C37.0092 85.9277 38.8337 86.4799 40.7 86.48C41.2571 86.4778 41.8128 86.4242 42.3601 86.32L119.84 196.8L49.8401 146.9C50.0491 146.103 50.1567 145.284 50.1601 144.46C50.1384 142.594 49.5652 140.776 48.5126 139.235C47.46 137.693 45.9751 136.498 44.2447 135.799C42.5143 135.1 40.6158 134.928 38.788 135.305C36.9602 135.683 35.2849 136.592 33.9729 137.92C32.6609 139.247 31.7708 140.933 31.4146 142.765C31.0584 144.597 31.252 146.493 31.9712 148.215C32.6903 149.937 33.9028 151.408 35.456 152.443C37.0092 153.478 38.8337 154.03 40.7 154.03C41.2566 154.026 41.8119 153.976 42.3601 153.88L116.66 259.82L49.9001 212.29C50.0572 211.591 50.1377 210.877 50.1401 210.16C50.1183 208.294 49.5451 206.476 48.4926 204.935C47.44 203.393 45.9551 202.198 44.2247 201.499C42.4943 200.8 40.5958 200.628 38.768 201.005C36.9403 201.383 35.2649 202.292 33.9529 203.62C32.6409 204.947 31.7508 206.633 31.3946 208.465C31.0384 210.297 31.2321 212.193 31.9512 213.915C32.6703 215.637 33.8828 217.108 35.436 218.143C36.9892 219.178 38.8138 219.73 40.6801 219.73C42.3392 219.73 43.9683 219.288 45.4001 218.45L121.72 272.86C121.381 274.257 121.362 275.712 121.664 277.118C121.967 278.523 122.583 279.842 123.467 280.975C124.35 282.109 125.479 283.028 126.768 283.665C128.057 284.301 129.473 284.638 130.91 284.65C132.702 284.643 134.455 284.127 135.965 283.162C137.475 282.197 138.68 280.823 139.44 279.2H210.44C210.046 277.865 209.844 276.482 209.84 275.09C209.845 273.906 209.997 272.727 210.29 271.58H139.7C138.792 269.234 136.995 267.34 134.7 266.31V216.78L210.55 270.86C210.576 270.772 210.606 270.685 210.64 270.6C210.88 269.856 211.181 269.134 211.54 268.44C211.54 268.36 211.62 268.27 211.67 268.19C213.193 265.398 215.599 263.19 218.51 261.91L218.84 261.78C220.501 261.136 222.269 260.814 224.05 260.83C225.314 260.836 226.571 261.008 227.79 261.34V216.34C228.085 216.222 228.372 216.085 228.65 215.93L306.71 271.59H237.89C238 272.02 238.08 272.46 238.15 272.91C238.41 274.473 238.41 276.067 238.15 277.63C238.07 277.78 238.04 277.97 238 278.14ZM127 261.44L56.8201 161.3L121.46 207.38C121.46 207.38 121.46 207.48 121.46 207.53C121.457 209.369 121.983 211.17 122.976 212.718C123.969 214.266 125.387 215.496 127.06 216.26L127 261.44ZM127 193.88L56.4001 93.14L121.47 139.53C121.47 139.68 121.47 139.82 121.47 139.97C121.465 141.81 121.99 143.612 122.983 145.16C123.977 146.709 125.396 147.938 127.07 148.7L127 193.88ZM127 126.63L55.5001 24.63L121.44 71.63C121.44 71.87 121.44 72.11 121.44 72.35C121.433 74.19 121.958 75.9927 122.952 77.5415C123.945 79.0902 125.365 80.319 127.04 81.08L127 126.63ZM134.62 87.14L208.18 192.03L139.74 143.23C140.56 140.953 140.488 138.45 139.538 136.224C138.589 133.998 136.831 132.214 134.62 131.23V87.14ZM139.62 211.03C140.063 209.916 140.29 208.729 140.29 207.53C140.294 205.671 139.757 203.852 138.745 202.293C137.733 200.734 136.289 199.503 134.59 198.75V150.78L214.08 264.12L139.62 211.03ZM220.06 257.03V259.4L150.65 160.4L214.65 206.05C214.574 206.533 214.534 207.021 214.53 207.51C214.528 209.327 215.042 211.108 216.015 212.643C216.987 214.178 218.376 215.405 220.02 216.18L220.06 257.03ZM220.06 163.7V195.76L144.73 88.36L214.73 138.27C214.618 138.836 214.561 139.413 214.56 139.99C214.556 141.808 215.071 143.588 216.043 145.124C217.016 146.66 218.405 147.886 220.05 148.66L220.06 163.7ZM233.19 209.92C233.387 209.145 233.488 208.349 233.49 207.55C233.496 205.67 232.948 203.83 231.915 202.26C230.881 200.69 229.409 199.459 227.68 198.72V153.28L301.56 258.62L233.19 209.92ZM238.19 155.05L308.03 205.05C307.813 205.862 307.702 206.699 307.7 207.54C307.695 209.396 308.23 211.214 309.24 212.772C310.251 214.329 311.693 215.559 313.39 216.31L313.4 262.11L238.19 155.05Z" fill="url(#paint3_linear_19_668)"/>
<path d="M536.12 274.3C535.74 273.499 535.295 272.729 534.79 272C522.79 254.25 506.48 246.36 487.4 245.27C485.561 245.211 483.753 244.781 482.085 244.006C480.416 243.231 478.921 242.127 477.69 240.76C470.69 233.61 463.12 227.43 454.46 223.21C416.3 204.65 380.25 211.78 345.55 234.83C342.85 236.62 340.07 238.98 342.14 243.11C342.2 243.23 342.26 243.32 342.32 243.43C344.51 247.43 347.63 246.1 350.5 243.98C361.304 235.923 373.66 230.192 386.79 227.15C419.15 219.76 449.18 224.45 473.95 252.27C476.66 255.32 479.6 256.21 483.2 256.34C490.34 256.6 497.53 256.84 504.2 260.82C493.2 262.17 482.84 266.04 472.49 269.82C468.91 271.13 467.57 274.04 468.75 277.88C469.82 281.35 472.42 281.74 475.3 280.59C495.13 272.69 515.21 269.03 536.4 276.9C536.393 276.026 536.299 275.155 536.12 274.3Z" fill="url(#paint4_linear_19_668)"/>
<path d="M325.87 399.78C325.87 399.66 325.87 399.55 325.87 399.43L325.81 399.03L325.72 398.58L325.66 398.35L325.51 397.83C325.51 397.68 325.42 397.53 325.37 397.39C324.767 395.831 323.722 394.481 322.363 393.508C321.004 392.534 319.39 391.979 317.72 391.91H317.39C316.432 391.913 315.482 392.079 314.58 392.4L314.36 392.48L313.96 392.64L313.65 392.79L313.33 392.96C313.2 393.02 313.08 393.1 312.96 393.17L312.71 393.33C312.55 393.431 312.397 393.541 312.25 393.66L312.12 393.75H312.06C311.881 393.889 311.711 394.04 311.55 394.2C311.519 394.218 311.492 394.242 311.47 394.27L311.17 394.58L311.03 394.73L310.93 394.84L310.54 395.33L310.45 395.46C310.327 395.627 310.214 395.801 310.11 395.98L310.02 396.12L309.72 396.67V396.72H232.23C231.561 395.32 230.523 394.129 229.228 393.275C227.933 392.42 226.43 391.935 224.88 391.87H224.56C223.599 391.873 222.646 392.039 221.74 392.36L221.52 392.44L221.12 392.6L220.81 392.75L220.49 392.92C220.36 392.98 220.24 393.06 220.12 393.13L219.87 393.29C219.71 393.391 219.557 393.501 219.41 393.62L219.28 393.71H219.22C219.041 393.849 218.871 394 218.71 394.16L218.63 394.23L218.33 394.54L218.19 394.69L218.09 394.8L217.7 395.29L217.61 395.42C217.487 395.587 217.374 395.761 217.27 395.94L217.18 396.08L216.88 396.63L216.82 396.77C216.727 396.95 216.647 397.13 216.58 397.31C216.584 397.35 216.584 397.39 216.58 397.43L216.49 397.7C216.471 397.785 216.448 397.868 216.42 397.95V398.08V398.16V398.22L216.36 398.45C216.36 398.59 216.3 398.73 216.28 398.88L216.22 399.28C216.22 399.4 216.22 399.51 216.22 399.63C216.205 399.893 216.205 400.157 216.22 400.42C216.205 400.71 216.205 401 216.22 401.29C216.22 401.54 216.29 401.78 216.33 402.02C216.33 402.02 216.33 402.1 216.33 402.13C216.39 402.47 216.477 402.804 216.59 403.13L216.65 403.31C216.7 403.45 216.75 403.6 216.81 403.75C216.87 403.89 216.92 404.04 216.98 404.18C217.659 405.65 218.742 406.896 220.104 407.771C221.466 408.647 223.049 409.116 224.668 409.123C226.287 409.13 227.874 408.676 229.244 407.813C230.613 406.95 231.708 405.714 232.4 404.25H309.81C310.502 405.714 311.597 406.95 312.967 407.813C314.336 408.676 315.923 409.13 317.542 409.123C319.161 409.116 320.744 408.647 322.106 407.771C323.468 406.896 324.552 405.65 325.23 404.18C325.29 404.04 325.34 403.89 325.4 403.75C325.46 403.6 325.51 403.45 325.56 403.31L325.62 403.13C325.733 402.804 325.82 402.47 325.88 402.13C325.88 402.13 325.88 402.06 325.88 402.02C325.88 401.78 325.96 401.54 325.99 401.29C326.005 401 326.005 400.71 325.99 400.42C325.91 400.3 325.89 400.04 325.87 399.78Z" fill="url(#paint5_linear_19_668)"/>
<path d="M358.4 436.78C359.092 438.244 360.187 439.479 361.556 440.343C362.926 441.206 364.513 441.66 366.132 441.653C367.751 441.646 369.334 441.177 370.696 440.301C372.058 439.426 373.141 438.18 373.82 436.71C373.88 436.57 373.93 436.42 373.99 436.28L374.14 435.84L374.2 435.66C374.313 435.334 374.4 435 374.46 434.66C374.46 434.66 374.46 434.59 374.46 434.55C374.46 434.31 374.54 434.07 374.57 433.82C374.585 433.53 374.585 433.24 374.57 432.95C374.585 432.687 374.585 432.423 374.57 432.16C374.57 432.04 374.57 431.93 374.57 431.81L374.51 431.41L374.42 430.96L374.36 430.73L374.21 430.21C374.21 430.06 374.12 429.91 374.07 429.77C373.467 428.211 372.422 426.861 371.063 425.888C369.704 424.914 368.09 424.359 366.42 424.29H366.1C365.139 424.293 364.186 424.459 363.28 424.78L363.06 424.86L362.66 425.02L362.35 425.17L362.03 425.34L361.66 425.55L361.41 425.71C361.26 425.81 361.1 425.92 360.95 426.04L360.82 426.13L360.76 426.18C360.581 426.319 360.41 426.47 360.25 426.63L360.17 426.7L359.87 427.01L359.73 427.16L359.63 427.27C359.5 427.43 359.37 427.59 359.25 427.76C359.214 427.801 359.18 427.844 359.15 427.89C359.03 428.06 358.92 428.23 358.81 428.41L358.72 428.55C358.62 428.73 358.52 428.91 358.43 429.1V429.15H280.94C280.269 427.752 279.231 426.562 277.936 425.707C276.642 424.853 275.14 424.367 273.59 424.3H273.27C272.309 424.303 271.356 424.469 270.45 424.79L270.23 424.87L269.83 425.03L269.52 425.18L269.2 425.35L268.83 425.56L268.58 425.72C268.43 425.82 268.27 425.93 268.12 426.05L267.99 426.14L267.93 426.19C267.751 426.329 267.58 426.48 267.42 426.64L267.34 426.71L267.04 427.02L266.9 427.17L266.8 427.28C266.67 427.44 266.54 427.6 266.42 427.77C266.384 427.811 266.35 427.854 266.32 427.9C266.2 428.07 266.09 428.24 265.98 428.42L265.89 428.56C265.79 428.74 265.69 428.92 265.6 429.11V429.16C265.52 429.34 265.43 429.52 265.36 429.7V429.82C265.329 429.909 265.302 429.999 265.28 430.09C265.28 430.17 265.28 430.26 265.2 430.34V430.47C265.2 430.47 265.2 430.52 265.2 430.55C265.2 430.58 265.2 430.55 265.2 430.61C265.171 430.684 265.151 430.761 265.14 430.84C265.099 430.981 265.069 431.125 265.05 431.27L264.99 431.67C264.99 431.79 264.99 431.9 264.99 432.02C264.99 432.14 264.99 432.54 264.99 432.81C264.99 433.08 264.99 433.4 264.99 433.68C264.99 433.96 265.06 434.17 265.1 434.41C265.1 434.41 265.1 434.49 265.1 434.52C265.165 434.859 265.251 435.193 265.36 435.52L265.42 435.7C265.47 435.84 265.52 435.99 265.58 436.14L265.65 436.32C265.613 436.429 265.569 436.536 265.52 436.64H265.8C266.49 438.096 267.579 439.326 268.94 440.187C270.301 441.048 271.879 441.505 273.49 441.505C275.101 441.505 276.679 441.048 278.04 440.187C279.401 439.326 280.49 438.096 281.18 436.64L358.4 436.78Z" fill="url(#paint6_linear_19_668)"/>
<path d="M419.19 465.04C419.19 464.92 419.19 464.81 419.19 464.69L419.13 464.29L419.04 463.84L418.98 463.61L418.83 463.09C418.83 462.94 418.75 462.79 418.69 462.65C418.088 461.09 417.044 459.74 415.684 458.766C414.325 457.792 412.711 457.238 411.04 457.17H410.72C409.762 457.172 408.812 457.338 407.91 457.66L407.68 457.74L407.28 457.9L406.97 458.05L406.65 458.22C406.52 458.28 406.4 458.36 406.28 458.43L406.03 458.59C405.88 458.69 405.72 458.8 405.57 458.92L405.44 459.01H405.39C405.22 459.15 405.04 459.3 404.88 459.46L404.8 459.53L404.5 459.84L404.36 459.99L404.26 460.1C404.13 460.26 404 460.42 403.88 460.59C403.844 460.631 403.81 460.674 403.78 460.72C403.66 460.89 403.55 461.06 403.44 461.24L403.35 461.38C403.25 461.56 403.15 461.74 403.06 461.93H325.55C324.879 460.532 323.841 459.342 322.547 458.487C321.252 457.633 319.75 457.147 318.2 457.08H317.88C316.922 457.082 315.972 457.248 315.07 457.57L314.84 457.65L314.44 457.81L314.14 457.96L313.81 458.13L313.44 458.34L313.2 458.5C313.037 458.601 312.88 458.711 312.73 458.83L312.6 458.92H312.55C312.383 459.06 312.213 459.21 312.04 459.37L311.96 459.44L311.66 459.75L311.52 459.9L311.43 460.01C311.292 460.167 311.161 460.33 311.04 460.5L310.94 460.63C310.82 460.8 310.71 460.97 310.6 461.15C310.568 461.193 310.541 461.24 310.52 461.29C310.41 461.468 310.31 461.652 310.22 461.84C310.22 461.84 310.22 461.93 310.15 461.98L309.91 462.52V462.64C309.91 462.73 309.86 462.82 309.83 462.91C309.83 462.99 309.78 463.08 309.75 463.16V463.29V463.37V463.43L309.69 463.66C309.65 463.801 309.619 463.945 309.6 464.09L309.54 464.49C309.54 464.61 309.54 464.72 309.54 464.84C309.54 464.96 309.54 465.36 309.54 465.63C309.54 465.9 309.54 466.22 309.54 466.5C309.54 466.78 309.61 466.99 309.65 467.23C309.65 467.23 309.65 467.31 309.65 467.34C309.719 467.678 309.806 468.011 309.91 468.34L309.97 468.52C310.02 468.66 310.07 468.81 310.13 468.96C310.19 469.1 310.24 469.25 310.31 469.39C310.989 470.86 312.072 472.106 313.434 472.981C314.796 473.857 316.379 474.326 317.998 474.333C319.617 474.34 321.204 473.886 322.574 473.023C323.943 472.16 325.038 470.924 325.73 469.46H403.13C403.822 470.924 404.917 472.16 406.286 473.023C407.656 473.886 409.243 474.34 410.862 474.333C412.481 474.326 414.064 473.857 415.426 472.981C416.788 472.106 417.871 470.86 418.55 469.39C418.615 469.25 418.672 469.107 418.72 468.96C418.78 468.81 418.82 468.66 418.87 468.52L418.94 468.34C419.044 468.011 419.131 467.678 419.2 467.34C419.2 467.34 419.2 467.27 419.2 467.23C419.252 466.989 419.289 466.745 419.31 466.5C419.325 466.21 419.325 465.92 419.31 465.63C419.279 465.432 419.239 465.235 419.19 465.04Z" fill="url(#paint7_linear_19_668)"/>
<path d="M44.54 326.22C44.04 327.88 43.47 329.98 42.81 332.53C42.15 335.08 41.5 337.79 40.81 340.64C40.31 342.76 39.81 344.79 39.38 346.78C38.92 344.78 38.44 342.78 37.93 340.6C37.2633 337.753 36.5967 335.057 35.93 332.51C35.26 329.97 34.67 327.88 34.18 326.22L25.25 298.98H0V368.62H16.5V338.52C16.5 336.96 16.4667 334.987 16.4 332.6C16.3333 330.213 16.2633 327.63 16.19 324.85C16.1233 322.057 16.0533 319.243 15.98 316.41C15.98 316.22 15.98 316.05 15.98 315.87C16.07 316.18 16.14 316.47 16.23 316.78C17.01 319.653 17.7733 322.46 18.52 325.2C19.2667 327.94 19.9833 330.463 20.67 332.77C21.35 335.08 21.93 336.99 22.4 338.52L32.54 368.62H46.19L56.19 338.52C56.69 336.99 57.27 335.08 57.92 332.77C58.57 330.46 59.28 327.94 60.03 325.2C60.78 322.46 61.52 319.64 62.27 316.76C62.43 316.12 62.59 315.51 62.75 314.88C62.75 315.41 62.75 315.88 62.75 316.46C62.67 319.29 62.6 322.1 62.52 324.87C62.44 327.64 62.37 330.22 62.31 332.6C62.25 334.98 62.21 336.96 62.21 338.52V368.62H78.71V298.98H53.4L44.54 326.22Z" fill="#F0F0F1"/>
<path d="M88.47 368.62H138.76V354.69H105.16V340.34H136.15V326.74H105.16V312.91H138.76V298.98H88.47V368.62Z" fill="#F0F0F1"/>
<path d="M191.46 303.21C185.803 300.271 179.493 298.816 173.12 298.98H147.4V368.62H173.15C180.25 368.62 186.38 367.21 191.54 364.39C196.619 361.658 200.774 357.482 203.48 352.39C206.408 346.634 207.845 340.235 207.66 333.78C207.66 326.613 206.25 320.427 203.43 315.22C200.706 310.128 196.543 305.95 191.46 303.21ZM188.87 345.55C187.646 348.459 185.461 350.859 182.68 352.35C179.459 353.921 175.901 354.677 172.32 354.55H164.05V313.05H172.05C175.672 312.923 179.271 313.674 182.54 315.24C185.34 316.719 187.549 319.111 188.8 322.02C190.327 325.747 191.05 329.754 190.92 333.78C191.061 337.803 190.363 341.811 188.87 345.55Z" fill="#F0F0F1"/>
<path d="M232.34 298.98H215.65V368.62H232.34V298.98Z" fill="#F0F0F1"/>
<path d="M259.92 298.98L236.32 368.62H254.59L258.99 354.62H282.99L287.39 368.62H306.04L282.04 298.98H259.92ZM263.04 341.7L264.17 338.1C265.697 333.02 267.17 327.76 268.59 322.32C269.35 319.39 270.14 316.32 270.93 313.22C271.743 316.34 272.543 319.367 273.33 322.3C274.803 327.72 276.3 332.987 277.82 338.1L278.95 341.7H263.04Z" fill="#F0F0F1"/>
<path d="M326.71 298.98H310.03V368.62H356.77V354.69H326.71V298.98Z" fill="#F0F0F1"/>
<path d="M324.36 299.11H307.67V368.75H354.41V354.82H324.36V299.11Z" fill="#F0F0F1"/>
<path d="M380.84 298.98H364.15V368.62H380.84V298.98Z" fill="#F0F0F1"/>
<path d="M388.22 312.91H408.97V368.62H425.61V312.91H446.36V298.98H388.22V312.91Z" fill="#F0F0F1"/>
<path d="M496.4 298.98L485.96 319.78C484.993 321.653 484.097 323.547 483.27 325.46C482.92 326.27 482.57 327.12 482.27 327.98C481.9 327.12 481.53 326.28 481.17 325.48C480.31 323.58 479.39 321.68 478.39 319.78L467.4 298.98H448.1L473.95 343.57V368.62H490.3V343.57L515.59 298.98H496.4Z" fill="#F0F0F1"/>
<path d="M556.9 348.43C555.327 351.215 552.764 353.306 549.72 354.29C548.058 354.817 546.323 355.077 544.58 355.06C541.423 355.148 538.313 354.287 535.65 352.59C533.059 350.811 531.065 348.291 529.93 345.36C527.27 337.924 527.27 329.796 529.93 322.36C531.073 319.412 533.063 316.868 535.65 315.05C538.317 313.296 541.459 312.406 544.65 312.5C546.4 312.483 548.141 312.743 549.81 313.27C551.328 313.757 552.739 314.527 553.97 315.54C555.191 316.546 556.209 317.774 556.97 319.16C557.774 320.656 558.325 322.274 558.6 323.95H575.4C574.969 320.159 573.833 316.483 572.05 313.11C570.381 309.966 568.111 307.18 565.37 304.91C562.566 302.608 559.358 300.848 555.91 299.72C552.137 298.491 548.189 297.883 544.22 297.92C538.312 297.832 532.482 299.279 527.3 302.12C522.236 304.977 518.104 309.233 515.4 314.38C512.48 319.713 511.023 326.2 511.03 333.84C511.037 341.48 512.493 347.94 515.4 353.22C518.1 358.353 522.225 362.596 527.28 365.44C532.485 368.295 538.344 369.746 544.28 369.65C548.426 369.71 552.551 369.033 556.46 367.65C559.943 366.393 563.162 364.497 565.95 362.06C568.603 359.731 570.791 356.922 572.4 353.78C573.987 350.609 575.003 347.183 575.4 343.66H558.6C558.294 345.331 557.72 346.942 556.9 348.43Z" fill="#F0F0F1"/>
<defs>
<linearGradient id="paint0_linear_19_668" x1="-301.331" y1="275.09" x2="613.981" y2="275.09" gradientUnits="userSpaceOnUse">
<stop stop-color="#2A2764"/>
<stop offset="0.64" stop-color="#00A79D"/>
<stop offset="1" stop-color="#2699D5"/>
</linearGradient>
<linearGradient id="paint1_linear_19_668" x1="-230.6" y1="142.24" x2="637.17" y2="142.24" gradientUnits="userSpaceOnUse">
<stop stop-color="#2A2764"/>
<stop offset="0.64" stop-color="#00A79D"/>
<stop offset="1" stop-color="#2699D5"/>
</linearGradient>
<linearGradient id="paint2_linear_19_668" x1="-252.341" y1="274.93" x2="577.611" y2="274.93" gradientUnits="userSpaceOnUse">
<stop stop-color="#2A2764"/>
<stop offset="0.64" stop-color="#00A79D"/>
<stop offset="1" stop-color="#2699D5"/>
</linearGradient>
<linearGradient id="paint3_linear_19_668" x1="-230.6" y1="142.24" x2="637.17" y2="142.24" gradientUnits="userSpaceOnUse">
<stop stop-color="#2A2764"/>
<stop offset="0.64" stop-color="#00A79D"/>
<stop offset="1" stop-color="#2699D5"/>
</linearGradient>
<linearGradient id="paint4_linear_19_668" x1="-234.7" y1="246.92" x2="633.07" y2="246.92" gradientUnits="userSpaceOnUse">
<stop stop-color="#2A2764"/>
<stop offset="0.64" stop-color="#00A79D"/>
<stop offset="1" stop-color="#2699D5"/>
</linearGradient>
<linearGradient id="paint5_linear_19_668" x1="-2782.02" y1="400.57" x2="2537.11" y2="400.57" gradientUnits="userSpaceOnUse">
<stop stop-color="#2A2764"/>
<stop offset="0.64" stop-color="#00A79D"/>
<stop offset="1" stop-color="#2699D5"/>
</linearGradient>
<linearGradient id="paint6_linear_19_668" x1="-2733.31" y1="432.92" x2="2585.82" y2="432.92" gradientUnits="userSpaceOnUse">
<stop stop-color="#2A2764"/>
<stop offset="0.64" stop-color="#00A79D"/>
<stop offset="1" stop-color="#2699D5"/>
</linearGradient>
<linearGradient id="paint7_linear_19_668" x1="-2688.7" y1="465.83" x2="2630.44" y2="465.83" gradientUnits="userSpaceOnUse">
<stop stop-color="#2A2764"/>
<stop offset="0.64" stop-color="#00A79D"/>
<stop offset="1" stop-color="#2699D5"/>
</linearGradient>
</defs>
</svg>
