<svg id="Layer_1" data-name="Layer 1" xmlns="http://www.w3.org/2000/svg" xmlns:xlink="http://www.w3.org/1999/xlink" viewBox="0 0 1080 1080"><defs><style>.cls-1{fill:none;}.cls-2{clip-path:url(#clip-path);}.cls-3{fill:#231f2d;}.cls-4{fill:#231f20;}.cls-5{fill:#f0f0f1;}</style><clipPath id="clip-path"><rect class="cls-1" x="1136.51" y="1186.02" width="974.57" height="359.88"/></clipPath></defs><path class="cls-5" d="M513.62,524.87a9.43,9.43,0,0,0,8.52-5.45c.08-.15.13-.31.2-.47h0a4.75,4.75,0,0,0,.17-.49,1.46,1.46,0,0,0,.07-.19,8.2,8.2,0,0,0,.29-1.08s0-.08,0-.12c.05-.27.09-.53.12-.8s0-.64,0-1a8.51,8.51,0,0,0,0-.88c0-.13,0-.26,0-.39l-.06-.43c0-.17-.07-.34-.11-.5l-.06-.26c0-.19-.1-.38-.17-.57h0c0-.16-.09-.33-.15-.48a9.47,9.47,0,0,0-8.44-6.05h-.35a9.1,9.1,0,0,0-3.1.54l-.25.08-.44.19-.34.16-.36.18-.41.24-.27.17-.51.37-.14.1-.06.05h0l-.56.5-.09.08-.33.34-.16.17-.1.12c-.15.17-.29.35-.43.54l-.11.14c-.13.18-.25.37-.37.57l-.1.15-.32.61s-.05.1-.08.16-.18.39-.26.6l0,.05,0,.13c0,.1-.07.2-.1.3h0c0,.09,0,.18-.08.28s0,.09-.05.14,0,.06,0,.09,0,0,0,.06l-.06.26c0,.15-.07.31-.1.47h0v0l-.06.43c0,.13,0,.26-.05.39,0,.29,0,.58,0,.88a7.72,7.72,0,0,0,0,1c0,.27.07.53.11.8a.5.5,0,0,1,0,.12c.08.37.18.72.29,1.08l.07.19c.06.16.11.33.17.49h0c.06.16.12.32.19.47A9.44,9.44,0,0,0,513.62,524.87Z"/><path class="cls-5" d="M334.14,566.44c-.5,1.66-1.07,3.76-1.73,6.31s-1.31,5.26-2,8.11c-.5,2.12-1,4.15-1.43,6.14-.46-2-.94-4-1.45-6.18q-1-4.27-2-8.09c-.67-2.54-1.26-4.63-1.75-6.29l-8.93-27.24H289.6v69.64h16.5v-30.1q0-2.34-.1-5.92t-.21-7.75q-.1-4.19-.21-8.44c0-.19,0-.36,0-.54.09.31.16.6.25.91q1.17,4.31,2.29,8.42t2.15,7.57c.68,2.31,1.26,4.22,1.73,5.75l10.14,30.1h13.65l10-30.1c.5-1.53,1.08-3.44,1.73-5.75s1.36-4.83,2.11-7.57,1.49-5.56,2.24-8.44c.16-.64.32-1.25.48-1.88,0,.53,0,1,0,1.58-.08,2.83-.15,5.64-.23,8.41s-.15,5.35-.21,7.73-.1,4.36-.1,5.92v30.1h16.5V539.2H343Z"/><polygon class="cls-5" points="378.07 608.84 428.36 608.84 428.36 594.91 394.76 594.91 394.76 580.56 425.75 580.56 425.75 566.96 394.76 566.96 394.76 553.13 428.36 553.13 428.36 539.2 378.07 539.2 378.07 608.84"/><path class="cls-5" d="M481.06,543.43a37.68,37.68,0,0,0-18.34-4.23H437v69.64h25.75q10.65,0,18.39-4.23a29.17,29.17,0,0,0,11.94-12A38.61,38.61,0,0,0,497.26,574q0-10.75-4.23-18.56A29.39,29.39,0,0,0,481.06,543.43Zm-2.59,42.34a13.78,13.78,0,0,1-6.19,6.8,21.86,21.86,0,0,1-10.36,2.2h-8.27v-41.5h8a22.46,22.46,0,0,1,10.49,2.19,13.86,13.86,0,0,1,6.26,6.78A28.58,28.58,0,0,1,480.52,574,29,29,0,0,1,478.47,585.77Z"/><rect class="cls-5" x="505.25" y="539.2" width="16.69" height="69.64"/><path class="cls-5" d="M525.92,608.84h18.27l4.4-14h24l4.4,14h18.65l-24-69.64H549.52Zm27.85-30.52q2.29-7.62,4.42-15.78c.76-2.93,1.55-6,2.34-9.1q1.22,4.68,2.4,9.08,2.21,8.13,4.49,15.8l1.13,3.6H552.64Z"/><polygon class="cls-5" points="599.63 539.2 599.63 539.33 597.27 539.33 597.27 608.97 644.01 608.97 644.01 608.84 646.37 608.84 646.37 594.91 616.31 594.91 616.31 539.2 599.63 539.2"/><rect class="cls-5" x="653.75" y="539.2" width="16.69" height="69.64"/><polygon class="cls-5" points="677.82 553.13 698.57 553.13 698.57 608.84 715.21 608.84 715.21 553.13 735.96 553.13 735.96 539.2 677.82 539.2 677.82 553.13"/><path class="cls-5" d="M786,539.2,775.56,560q-1.45,2.81-2.69,5.68c-.35.81-.7,1.66-1,2.52-.37-.86-.74-1.7-1.1-2.5-.86-1.9-1.78-3.8-2.78-5.7L757,539.2H737.7l25.85,44.59v25.05H779.9V583.79l25.29-44.59Z"/><path class="cls-5" d="M846.5,588.65a12.75,12.75,0,0,1-7.18,5.86,16.45,16.45,0,0,1-5.14.77,15.8,15.8,0,0,1-8.93-2.47,15.6,15.6,0,0,1-5.72-7.23,34.14,34.14,0,0,1,0-23,16,16,0,0,1,5.72-7.31,15.55,15.55,0,0,1,9-2.55,16.62,16.62,0,0,1,5.16.77,12.62,12.62,0,0,1,4.16,2.27,12.47,12.47,0,0,1,3,3.62,15.31,15.31,0,0,1,1.63,4.79H865a30.58,30.58,0,0,0-3.35-10.84,27.22,27.22,0,0,0-6.68-8.2,29.24,29.24,0,0,0-9.46-5.19,36.63,36.63,0,0,0-11.69-1.8,34.14,34.14,0,0,0-16.92,4.2A30.21,30.21,0,0,0,805,554.6q-4.38,8-4.37,19.46T805,593.44a30.1,30.1,0,0,0,11.88,12.22,34.19,34.19,0,0,0,17,4.21,35,35,0,0,0,12.18-2,29.8,29.8,0,0,0,9.49-5.59A28,28,0,0,0,862,594,30.17,30.17,0,0,0,865,583.88H848.2A15.78,15.78,0,0,1,846.5,588.65Z"/><path class="cls-5" d="M631.92,483.65h0c2.19,4,5.31,2.67,8.18.55a97.53,97.53,0,0,1,36.29-16.83c32.36-7.39,62.39-2.7,87.16,25.12,2.71,3.05,5.65,3.94,9.25,4.07,7.14.26,14.33.5,21,4.48-11,1.35-21.36,5.22-31.71,9-3.58,1.31-4.92,4.22-3.74,8.06,1.07,3.47,3.67,3.86,6.55,2.71,19.83-7.9,39.91-11.56,61.1-3.69a13.23,13.23,0,0,0-.25-2.62,16.37,16.37,0,0,0-1.33-2.3c-12-17.75-28.31-25.64-47.39-26.73a13.66,13.66,0,0,1-9.71-4.51c-7-7.15-14.57-13.33-23.23-17.55C705.9,444.87,669.85,452,635.15,475.05c-2.7,1.79-5.48,4.15-3.41,8.28C631.8,483.45,631.86,483.54,631.92,483.65Z"/><path class="cls-5" d="M606.93,649.47a8.56,8.56,0,0,0,7.74-4.94c.06-.14.11-.29.17-.43h0c.06-.15.11-.3.16-.44l.06-.18a7.83,7.83,0,0,0,.26-1s0-.07,0-.11c0-.24.08-.48.11-.73a8.19,8.19,0,0,0,0-.87c0-.27,0-.53,0-.79s0-.23,0-.35l-.06-.4-.09-.45-.06-.23-.15-.52h0c0-.15-.09-.3-.14-.44a8.58,8.58,0,0,0-7.65-5.48h-.33a8.47,8.47,0,0,0-2.81.49l-.22.08-.4.16-.31.15-.32.17c-.13.06-.25.14-.37.21l-.25.16a4.84,4.84,0,0,0-.46.33l-.13.09-.06,0h0a5.47,5.47,0,0,0-.51.45.27.27,0,0,0-.08.07l-.3.31-.14.15-.1.11-.39.49-.09.13a5.8,5.8,0,0,0-.34.52l-.09.14-.3.55,0,.05H521.83a8.54,8.54,0,0,0-7.35-4.85h-.32a8.53,8.53,0,0,0-2.82.49l-.22.08-.4.16-.31.15-.32.17c-.13.06-.25.14-.37.21l-.25.16a4.84,4.84,0,0,0-.46.33l-.13.09-.06,0h0a5.47,5.47,0,0,0-.51.45l-.08.07-.3.31-.14.15-.1.11-.39.49-.09.13a5.8,5.8,0,0,0-.34.52l-.09.14-.3.55-.06.14q-.14.27-.24.54l0,0a.56.56,0,0,1,0,.12l-.09.27h0a2.33,2.33,0,0,1-.07.25l0,.13,0,.08,0,.06-.06.23c0,.14-.06.28-.08.43v0l-.06.4c0,.12,0,.23,0,.35a6.85,6.85,0,0,0,0,.79,8.19,8.19,0,0,0,0,.87c0,.25.07.49.11.73,0,0,0,.08,0,.11a6.42,6.42,0,0,0,.26,1l.06.18c.05.14.1.29.16.44h0c.06.14.11.29.17.43a8.51,8.51,0,0,0,15.42.07h77.41A8.54,8.54,0,0,0,606.93,649.47Z"/><path class="cls-5" d="M655.65,681.82a8.56,8.56,0,0,0,7.73-4.94c.06-.14.11-.29.17-.43h0l.15-.44.06-.18a6.42,6.42,0,0,0,.26-1s0-.07,0-.11c0-.24.08-.48.11-.73a8.19,8.19,0,0,0,0-.87,6.85,6.85,0,0,0,0-.79c0-.12,0-.23,0-.35l-.06-.4-.09-.45-.06-.23-.15-.52h0c0-.15-.09-.3-.14-.44a8.58,8.58,0,0,0-7.65-5.48h-.32a8.53,8.53,0,0,0-2.82.49l-.22.08-.4.16-.31.15-.32.17-.37.21-.25.16c-.15.1-.31.21-.46.33l-.13.09-.06.05h0a5.47,5.47,0,0,0-.51.45l-.08.07-.3.31-.14.15-.1.11c-.13.16-.26.32-.38.49a1.13,1.13,0,0,0-.1.13c-.12.17-.23.34-.34.52l-.09.14c-.1.18-.2.36-.29.55l0,.05H570.54a8.56,8.56,0,0,0-7.35-4.85h-.32a8.53,8.53,0,0,0-2.82.49l-.22.08-.4.16-.31.15-.32.17-.37.21-.25.16c-.15.1-.31.21-.46.33l-.13.09-.06.05h0a5.47,5.47,0,0,0-.51.45l-.08.07-.3.31-.14.15-.1.11c-.13.16-.26.32-.38.49a1.13,1.13,0,0,0-.1.13c-.12.17-.23.34-.34.52l-.09.14c-.1.18-.2.36-.29.55l0,.05h0a.06.06,0,0,1,0,0l0,0c-.08.18-.17.36-.24.54v0l0,.12a2.76,2.76,0,0,0-.08.27h0c0,.08,0,.17-.08.25l0,.13s0,.05,0,.08v.06a1,1,0,0,0-.06.23,3,3,0,0,0-.09.43h0v0l-.06.4c0,.12,0,.23,0,.35s0,.52,0,.79,0,.59,0,.87.07.49.11.73c0,0,0,.08,0,.11a7.83,7.83,0,0,0,.26,1l.06.18c.05.14.1.29.16.44h0l.07.18c0,.1-.08.22-.13.32h.28a8.51,8.51,0,0,0,15.38,0H648A8.54,8.54,0,0,0,655.65,681.82Z"/><path class="cls-5" d="M708.75,704.91l-.06-.4-.09-.45-.06-.23-.15-.52h0c0-.15-.08-.3-.14-.44a8.57,8.57,0,0,0-7.65-5.48h-.32a8.18,8.18,0,0,0-2.81.49l-.23.08-.4.16-.31.15-.32.17c-.13.06-.25.14-.37.21l-.24.16a5,5,0,0,0-.47.33l-.13.09-.05,0h0c-.17.14-.35.29-.51.45l-.08.07-.3.31-.14.15-.1.11c-.13.16-.26.32-.38.49a1.13,1.13,0,0,0-.1.13c-.12.17-.23.34-.34.52l-.09.14c-.1.18-.2.36-.29.55l0,0H615.15a8.56,8.56,0,0,0-7.35-4.85h-.32a8.18,8.18,0,0,0-2.81.49l-.23.08-.4.16-.3.15-.33.17-.37.21-.24.16a5,5,0,0,0-.47.33l-.13.09-.05,0h0q-.25.21-.51.45l-.08.07-.3.31-.14.15-.09.11a6,6,0,0,0-.39.49l-.1.13c-.12.17-.23.34-.34.52a.64.64,0,0,0-.08.14,5.86,5.86,0,0,0-.3.55s0,.09-.07.14l-.24.54a.43.43,0,0,1,0,0l0,.12c0,.09-.05.18-.08.27h0c0,.08-.05.17-.08.25l0,.13,0,.08v.06l-.06.23a3,3,0,0,0-.09.43h0v0l-.06.4c0,.12,0,.23,0,.35s0,.52,0,.79,0,.59,0,.87.07.49.11.73c0,0,0,.08,0,.11a10,10,0,0,0,.26,1l.06.18c.05.14.1.29.16.44h0c.06.14.11.29.18.43a8.51,8.51,0,0,0,15.42.07h77.4a8.51,8.51,0,0,0,15.42-.07,3.83,3.83,0,0,0,.17-.43h0c.06-.15.1-.3.15-.44l.07-.18a10,10,0,0,0,.26-1s0-.07,0-.11a5.84,5.84,0,0,0,.11-.73,8.19,8.19,0,0,0,0-.87,6.85,6.85,0,0,0,0-.79C708.78,705.14,708.77,705,708.75,704.91Z"/><path class="cls-5" d="M508.41,502a14.06,14.06,0,0,1,5.21-.95,14.49,14.49,0,0,1,3.74.51v-45a7.49,7.49,0,0,0,.86-.41l78.06,55.66H527.49c.11.43.19.87.26,1.32a14.38,14.38,0,0,1,0,4.72c0,.18-.06.35-.1.52-.08.36-.16.71-.27,1.06h71a9.44,9.44,0,0,0,18-4.11,9.57,9.57,0,0,0-5.7-8.78l.09-50.07a9.58,9.58,0,0,0-3.85-18.3,9.28,9.28,0,0,0-4.39,1.1l-79.53-57a9.86,9.86,0,0,0,.24-2.13,9.52,9.52,0,0,0-9.46-9.57,9.34,9.34,0,0,0-5.06,1.5l-79.17-56.44a9.76,9.76,0,0,0,.49-3,9.51,9.51,0,0,0-9.46-9.56,9.32,9.32,0,0,0-5.83,2l-75.13-53.57a9.33,9.33,0,0,0,.19-1.92,9.46,9.46,0,1,0-9.46,9.57,8.93,8.93,0,0,0,1.47-.13l76.83,109.55-69.09-49.25a9.85,9.85,0,0,0,.25-2.18,9.46,9.46,0,1,0-9.46,9.57,9.07,9.07,0,0,0,1.66-.16l77.48,110.48-70-49.9a9.77,9.77,0,0,0,.32-2.44,9.46,9.46,0,1,0-9.46,9.57,10,10,0,0,0,1.66-.15l74.3,105.94L339.5,452.51a9.86,9.86,0,0,0,.24-2.13,9.46,9.46,0,1,0-9.46,9.57,9.32,9.32,0,0,0,4.72-1.28l76.32,54.41a9.54,9.54,0,0,0,9.19,11.79,9.46,9.46,0,0,0,8.53-5.45h71a14.64,14.64,0,0,1-.6-4.11,14.42,14.42,0,0,1,.45-3.51H429.3a9.56,9.56,0,0,0-5-5.27V457l75.85,54.08a2.67,2.67,0,0,1,.09-.26,14.06,14.06,0,0,1,.9-2.16c0-.08.08-.17.13-.25a14.39,14.39,0,0,1,6.84-6.28Zm89.31-56.78a9.77,9.77,0,0,0-.33,2.49,9.56,9.56,0,0,0,5.69,8.77L603,502.33l-75.12-107.1Zm-80.36-41V393.5l73.88,105.34L522.87,450.1a9.74,9.74,0,0,0,.3-2.37,9.57,9.57,0,0,0-5.81-8.83ZM416.65,501.66,346.42,401.52l64.64,46.08s0,.1,0,.15a9.58,9.58,0,0,0,5.6,8.73Zm0-67.56L346,333.36l65.07,46.39c0,.15,0,.29,0,.44a9.56,9.56,0,0,0,5.6,8.73Zm0-67.25-71.5-102,65.94,47c0,.24,0,.48,0,.72a9.55,9.55,0,0,0,5.6,8.73Zm93.09,130.36v2.37l-69.41-99,64,45.65a10,10,0,0,0-.12,1.46,9.57,9.57,0,0,0,5.49,8.67Zm-5.32-118.76a8.88,8.88,0,0,0-.17,1.72,9.56,9.56,0,0,0,5.49,8.67v47.1l-75.33-107.4Zm-80.15-51.09,73.56,104.89-68.44-48.8a9.58,9.58,0,0,0-5.12-12Zm5,123.89a9.48,9.48,0,0,0,.67-3.5,9.58,9.58,0,0,0-5.7-8.78V391l79.49,113.34Z"/></svg>