<?xml version="1.0" encoding="UTF-8" standalone="no"?>
<!-- Created with Inkscape (http://www.inkscape.org/) -->

<svg
   width="172.24374mm"
   height="101.33542mm"
   viewBox="0 0 172.24375 101.33542"
   version="1.1"
   id="svg1"
   xml:space="preserve"
   xmlns="http://www.w3.org/2000/svg"
   xmlns:svg="http://www.w3.org/2000/svg"><defs
     id="defs1" /><g
     id="layer1"
     transform="translate(-81.147941,-435.43143)"><path
       d="m 176.53949,485.34276 0.63024,-6.6466 c 0.0325,-0.29263 -0.28258,-0.48789 -0.53234,-0.34687 l -10.68255,6.08277 c -0.10848,0.0648 -0.24977,0.0648 -0.35851,0 l -10.64975,-6.08277 c -0.25003,-0.14102 -0.56515,0.0542 -0.5326,0.34687 l 0.65219,6.6466 c 0.0109,0.11932 0.0759,0.21669 0.18468,0.28178 l 10.36717,5.89862 c 0.10874,0.0648 0.25003,0.0648 0.35851,0 l 10.41083,-5.89862 c 0.0979,-0.0542 0.17383,-0.16246 0.18468,-0.28178 z"
       fill="#1657cf"
       id="path1"
       style="fill:#1657cf;fill-opacity:1;stroke-width:0.264583" /><path
       d="m 172.39903,437.90611 -6.4008,-2.71066 c -0.0868,-0.0325 -0.18468,-0.0434 -0.28258,0 l -6.74846,2.76488 c -0.29342,0.11927 -0.30427,0.53128 -0.0108,0.6614 l 6.53124,3.01427 c 0.0979,0.0434 0.20638,0.0434 0.30427,0 l 6.62887,-3.05763 c 0.28258,-0.13013 0.28258,-0.53129 0,-0.66141 z"
       fill="#26c95d"
       id="path2"
       style="fill:#26c95d;fill-opacity:1;stroke-width:0.264583" /><path
       d="m 187.66734,444.21656 -7.10698,-2.96005 c 0,0 -0.022,0 -0.0328,0 l -2.01031,-0.84572 h -0.28257 l -6.74847,2.76487 c -0.29342,0.11928 -0.30427,0.53128 -0.0108,0.66141 l 1.32582,0.60716 c 0.27173,0.11928 0.28258,0.50962 0.0109,0.63974 l -7.07443,3.61058 c -0.0979,0.0542 -0.21748,0.0542 -0.32623,0 l -14.30099,-7.28625 c -0.0979,-0.0434 -0.20638,-0.0542 -0.30427,-0.0109 l -7.10698,2.96005 c -0.27172,0.11928 -0.29342,0.49877 -0.0328,0.63971 l 21.73419,11.61248 c 0.10875,0.0542 0.22834,0.0542 0.33708,0 l 21.95142,-11.74257 c 0.26088,-0.14097 0.25003,-0.52047 -0.0325,-0.63974 z"
       fill="#26c95d"
       id="path3"
       style="fill:#26c95d;fill-opacity:1;stroke-width:0.264583" /><path
       d="m 147.42633,466.28138 17.88742,9.89938 c 0.10874,0.0651 0.23892,0.0651 0.34766,0 l 18.23509,-9.91023 c 0.25003,-0.14102 0.56515,0.0651 0.53234,0.34687 l -1.97776,20.21073 c -0.0325,0.29289 0.29342,0.49874 0.54345,0.34687 l 8.4545,-5.10673 c 0.0979,-0.0542 0.15213,-0.15187 0.17409,-0.26035 l 4.45532,-33.27601 c 0.0437,-0.29276 -0.27173,-0.50961 -0.53234,-0.36864 l -29.88469,16.45917 c -0.10874,0.0651 -0.23892,0.0651 -0.34766,0 l -29.28699,-16.44835 c -0.26062,-0.14094 -0.576,0.0651 -0.53234,0.35782 l 4.45531,33.27601 c 0.0111,0.10848 0.0762,0.20611 0.1741,0.26035 l 8.44365,5.10673 c 0.26088,0.15187 0.576,-0.054 0.54345,-0.34687 l -2.21694,-20.17819 c -0.0326,-0.29263 0.28257,-0.49874 0.53234,-0.35771 z"
       fill="#1657cf"
       id="path4"
       style="fill:#1657cf;fill-opacity:1;stroke-width:0.264583" /><path
       d="m 95.362125,511.35421 8.498075,-9.78006 h 5.72701 v 26.36943 h -6.58551 v -16.4592 l -7.139698,8.27299 h -0.988907 l -7.139675,-8.27299 v 16.4592 h -6.585479 v -26.36943 h 5.716111 z"
       fill="#1657cf"
       id="path5"
       style="fill:#1657cf;fill-opacity:1;stroke-width:0.264583" /><path
       d="m 130.29985,522.41379 v 3.53457 c -2.14074,1.56157 -4.80324,2.34209 -7.96554,2.34209 -3.1623,0 -5.65098,-0.84561 -7.53084,-2.52624 -1.88013,-1.68063 -2.81464,-3.9034 -2.81464,-6.67914 0,-2.77575 0.88027,-4.95512 2.65166,-6.71169 1.76027,-1.75657 4.02087,-2.62387 6.75931,-2.62387 2.73843,0 5.00962,0.92154 6.75931,2.7649 1.76053,1.84335 2.5863,4.31535 2.46671,7.40542 h -12.82303 c 0.10874,1.61554 0.68447,2.86253 1.71688,3.73009 1.0324,0.86731 2.42332,1.31181 4.16216,1.31181 2.1082,0 4.31429,-0.84561 6.61802,-2.54794 z m -12.38832,-5.43216 h 7.75891 c -0.30427,-2.59133 -1.59729,-3.89255 -3.87959,-3.89255 -2.28203,0 -3.59701,1.30122 -3.87932,3.89255 z"
       fill="#1657cf"
       id="path6"
       style="fill:#1657cf;fill-opacity:1;stroke-width:0.264583" /><path
       d="m 151.83852,501.57415 v 26.36943 h -5.61816 v -1.43139 c -1.43457,1.18189 -3.08637,1.77826 -4.95565,1.77826 -2.37966,0 -4.37938,-0.87815 -5.96582,-2.64557 -1.59756,-1.76741 -2.39078,-3.97933 -2.39078,-6.63575 0,-2.65641 0.81492,-4.94427 2.43417,-6.66829 1.61925,-1.72376 3.69491,-2.59133 6.23782,-2.59133 1.57559,0 3.12949,0.37941 4.65111,1.12765 v -9.30301 h 5.61816 z m -5.61816,21.4794 v -8.51164 c -1.02156,-0.69374 -2.06481,-1.04087 -3.14061,-1.04087 -1.41287,0 -2.51036,0.48789 -3.30358,1.47478 -0.79349,0.98664 -1.18454,2.36353 -1.18454,4.13094 0,1.63725 0.39105,2.94931 1.17342,3.93595 0.78264,0.98663 1.82589,1.48537 3.11891,1.48537 1.152,0 2.26034,-0.4879 3.32529,-1.47453 z"
       fill="#1657cf"
       id="path7"
       style="fill:#1657cf;fill-opacity:1;stroke-width:0.264583" /><path
       d="m 154.32719,504.3282 c 0,-0.85646 0.30427,-1.583 0.91281,-2.19022 0.60855,-0.60722 1.32557,-0.9107 2.17329,-0.9107 0.84773,0 1.58671,0.30348 2.19525,0.9107 0.60854,0.60722 0.91281,1.33376 0.91281,2.19022 0,0.85672 -0.30427,1.57215 -0.91281,2.17937 -0.60854,0.60722 -1.33667,0.9107 -2.19525,0.9107 -0.85857,0 -1.56474,-0.30348 -2.17329,-0.9107 -0.60854,-0.60722 -0.91281,-1.3335 -0.91281,-2.17937 z m 5.92244,5.78987 v 17.82551 h -5.61817 v -17.82551 z"
       fill="#1657cf"
       id="path8"
       style="fill:#1657cf;fill-opacity:1;stroke-width:0.264583" /><path
       d="m 181.32104,523.55229 v 3.11177 c -1.86928,1.08426 -3.6187,1.62639 -5.25965,1.62639 -1.77139,0 -2.81464,-0.66146 -3.1406,-2.0058 -1.95607,1.3335 -3.91213,2.0058 -5.87905,2.0058 -1.39118,0 -2.56487,-0.43365 -3.54277,-1.3118 -0.96731,-0.87842 -1.45626,-1.89759 -1.45626,-3.05779 0,-1.55046 0.49979,-2.79744 1.49965,-3.75153 0.99987,-0.95409 4.04257,-2.17937 9.1067,-3.67559 0.13044,-1.98438 -0.91281,-2.98186 -3.10806,-2.98186 -2.37993,0 -4.57491,0.99748 -6.58548,2.98186 v -4.56486 c 2.34738,-1.44198 4.92284,-2.16852 7.73747,-2.16852 5.04243,0 7.56338,1.81081 7.56338,5.42131 v 8.13197 c 0,0.83502 0.30427,1.24698 0.92393,1.24698 0.46725,0 1.17343,-0.33602 2.11905,-0.99748 z m -8.66113,0.0759 v -4.31536 c -1.88013,0.6612 -3.17315,1.24672 -3.86874,1.76716 -0.69533,0.52043 -1.0541,1.19274 -1.0541,1.99522 0,0.52043 0.17383,0.96493 0.53261,1.3335 0.34766,0.36883 0.78237,0.55298 1.28217,0.55298 1.0541,0 2.09735,-0.4445 3.10806,-1.34435 z"
       fill="#1657cf"
       id="path9"
       style="fill:#1657cf;fill-opacity:1;stroke-width:0.264583" /><path
       d="m 189.56916,501.57415 v 26.36943 h -5.61842 v -26.36943 z"
       fill="#1657cf"
       id="path10"
       style="fill:#1657cf;fill-opacity:1;stroke-width:0.264583" /><path
       d="m 194.33986,504.3282 c 0,-0.85646 0.30428,-1.583 0.91282,-2.19022 0.60854,-0.60722 1.32582,-0.9107 2.17328,-0.9107 0.84773,0 1.58671,0.30348 2.19525,0.9107 0.60854,0.60722 0.91281,1.33376 0.91281,2.19022 0,0.85672 -0.30427,1.57215 -0.91281,2.17937 -0.60854,0.60722 -1.33667,0.9107 -2.19525,0.9107 -0.8583,0 -1.56474,-0.30348 -2.17328,-0.9107 -0.60854,-0.60722 -0.91282,-1.3335 -0.91282,-2.17937 z m 5.92244,5.78987 v 17.82551 h -5.61816 v -17.82551 z"
       fill="#1657cf"
       id="path11"
       style="fill:#1657cf;fill-opacity:1;stroke-width:0.264583" /><path
       d="m 216.7043,510.12892 v 3.82746 h -6.50954 v 7.3406 c 0,0.87816 0.23918,1.57216 0.72813,2.08175 0.48921,0.50958 1.152,0.76993 2.01057,0.76993 1.16258,0 2.41247,-0.34713 3.75999,-1.04087 v 4.05501 c -1.79308,0.74824 -3.52107,1.1168 -5.20541,1.1168 -2.19525,0 -3.90128,-0.56382 -5.10752,-1.70233 -1.20623,-1.12765 -1.81477,-2.79744 -1.81477,-4.98766 v -7.64407 h -2.55376 v -1.09511 l 7.47659,-8.34867 h 0.69533 v 5.60547 h 6.50954 z"
       fill="#1657cf"
       id="path12"
       style="fill:#1657cf;fill-opacity:1;stroke-width:0.264583" /><path
       d="m 237.00419,510.12892 -11.96472,26.36944 h -5.98779 l 5.24881,-11.4607 -6.98765,-14.90874 h 5.99863 l 3.78169,9.18395 4.03172,-9.18395 h 5.89016 z"
       fill="#1657cf"
       id="path13"
       style="fill:#1657cf;fill-opacity:1;stroke-width:0.264583" /><path
       d="m 234.66766,522.45718 -6.4225,14.04118 h 3.82535 l 4.68365,-10.33304 c -0.96732,-1.07342 -1.66264,-2.3204 -2.0865,-3.70814 z"
       fill="#26c95d"
       id="path14"
       style="fill:#26c95d;fill-opacity:1;stroke-width:0.264583" /><path
       d="m 253.39169,523.07525 v 4.02246 c -2.19525,0.79163 -4.20555,1.19274 -6.03118,1.19274 -3.1406,0 -5.65097,-0.84561 -7.5311,-2.52624 -1.87986,-1.68063 -2.81437,-3.9034 -2.81437,-6.67914 0,-2.77575 0.94536,-4.94427 2.84718,-6.70084 1.90156,-1.75657 4.31403,-2.63472 7.25911,-2.63472 1.89098,0 3.90128,0.39026 6.02033,1.17105 v 4.17433 c -1.5539,-0.79137 -3.07525,-1.19274 -4.57491,-1.19274 -1.67376,0 -3.02102,0.46646 -4.03172,1.39885 -1.01071,0.93239 -1.51051,2.17937 -1.51051,3.74068 0,1.5613 0.48895,2.85168 1.47796,3.80576 0.98875,0.95409 2.28203,1.44198 3.87932,1.44198 1.18454,0 2.8583,-0.41195 5.03158,-1.22502 z"
       fill="#1657cf"
       id="path15"
       style="fill:#1657cf;fill-opacity:1;stroke-width:0.264583" /></g></svg>
